<svg xmlns="http://www.w3.org/2000/svg" width="620" height="360" viewBox="0 0 620 360" role="img" aria-label="PostQueen analytics: engagement chart, followers, impressions and video views">
  <defs>
    <linearGradient id="bg" x1="0" y1="0" x2="1" y2="1"><stop offset="0" stop-color="#0f0e1d"/><stop offset="1" stop-color="#171331"/></linearGradient>
    <linearGradient id="engfill" x1="0" y1="0" x2="0" y2="1"><stop offset="0" stop-color="#ec4899" stop-opacity="0.25"/><stop offset="1" stop-color="#ec4899" stop-opacity="0"/></linearGradient>
  </defs>
  <rect x="1" y="1" width="618" height="358" rx="22" fill="url(#bg)" stroke="#2a2150" stroke-width="1.5"/>
  <text x="24" y="40" font-family="'Segoe UI',Helvetica,Arial,sans-serif" font-size="16" font-weight="700" fill="#ffffff">Analytics</text>
  <text x="596" y="40" text-anchor="end" font-family="'Segoe UI',Helvetica,Arial,sans-serif" font-size="12.5" fill="#8b84b5">Last 30 days</text>
  <!-- big engagement card -->
  <rect x="24" y="56" width="360" height="180" rx="14" fill="#1b1633"/>
  <text x="44" y="86" font-family="'Segoe UI',Helvetica,Arial,sans-serif" font-size="14" font-weight="600" fill="#e8e3ff">Posts Engagement</text>
  <path d="M44,196 C70,186 90,160 116,166 C142,172 150,140 176,128 C202,116 210,150 236,146 C262,142 270,108 296,102 C322,96 338,116 364,110 L364,216 L44,216 Z" fill="url(#engfill)"/>
  <path d="M44,196 C70,186 90,160 116,166 C142,172 150,140 176,128 C202,116 210,150 236,146 C262,142 270,108 296,102 C322,96 338,116 364,110" fill="none" stroke="#ec4899" stroke-width="2.6" stroke-linecap="round"/>
  <line x1="296" y1="70" x2="296" y2="216" stroke="#8b84b5" stroke-width="1" stroke-dasharray="4 4" opacity="0.6"/>
  <circle cx="296" cy="102" r="4.5" fill="#ec4899" stroke="#ffffff" stroke-width="1.5"/>
  <rect x="252" y="60" width="88" height="34" rx="9" fill="#ffffff"/>
  <text x="296" y="75" text-anchor="middle" font-family="'Segoe UI',Helvetica,Arial,sans-serif" font-size="10.5" fill="#6b7280">May 5</text>
  <text x="296" y="89" text-anchor="middle" font-family="'Segoe UI',Helvetica,Arial,sans-serif" font-size="13" font-weight="700" fill="#111827">8.4k</text>
  <!-- followers card -->
  <rect x="400" y="56" width="196" height="84" rx="14" fill="#1b1633"/>
  <text x="416" y="80" font-family="'Segoe UI',Helvetica,Arial,sans-serif" font-size="13" fill="#8b84b5">Followers</text>
  <text x="416" y="112" font-family="'Segoe UI',Helvetica,Arial,sans-serif" font-size="24" font-weight="800" fill="#ffffff">4,144</text>
  <rect x="512" y="94" width="66" height="22" rx="11" fill="#16351f"/>
  <text x="545" y="109" text-anchor="middle" font-family="'Segoe UI',Helvetica,Arial,sans-serif" font-size="11.5" font-weight="700" fill="#4ade80">▲ 12.4%</text>
  <!-- impressions card -->
  <rect x="400" y="152" width="196" height="84" rx="14" fill="#1b1633"/>
  <text x="416" y="176" font-family="'Segoe UI',Helvetica,Arial,sans-serif" font-size="13" fill="#8b84b5">Impressions</text>
  <text x="416" y="208" font-family="'Segoe UI',Helvetica,Arial,sans-serif" font-size="24" font-weight="800" fill="#ffffff">6,224</text>
  <path d="M506.0,210.0 L518.0,202.5 L530.0,207.0 L542.0,198.0 L554.0,201.0 L566.0,190.5 L578.0,195.0" fill="none" stroke="#a78bfa" stroke-width="2.2" stroke-linecap="round" stroke-linejoin="round"/>
  <!-- bottom row -->
  <rect x="24" y="252" width="276" height="84" rx="14" fill="#1b1633"/>
  <text x="44" y="276" font-family="'Segoe UI',Helvetica,Arial,sans-serif" font-size="13" fill="#8b84b5">Video Views</text>
  <text x="44" y="308" font-family="'Segoe UI',Helvetica,Arial,sans-serif" font-size="24" font-weight="800" fill="#ffffff">5,678</text>
  <path d="M170.0,298.8 L185.4,290.0 L200.9,296.6 L216.3,272.4 L231.7,294.4 L247.1,287.8 L262.6,292.2 L278.0,285.6" fill="none" stroke="#38bdf8" stroke-width="2.2" stroke-linecap="round" stroke-linejoin="round"/>
  <rect x="316" y="252" width="280" height="84" rx="14" fill="#1b1633"/>
  <text x="336" y="276" font-family="'Segoe UI',Helvetica,Arial,sans-serif" font-size="13" fill="#8b84b5">Likes</text>
  <text x="336" y="308" font-family="'Segoe UI',Helvetica,Arial,sans-serif" font-size="24" font-weight="800" fill="#ffffff">1,982</text>
  <path d="M452.0,301.0 L468.9,294.4 L485.7,287.8 L502.6,292.2 L519.4,283.4 L536.3,276.8 L553.1,279.0 L570.0,272.4" fill="none" stroke="#4ade80" stroke-width="2.2" stroke-linecap="round" stroke-linejoin="round"/>
</svg>
