<svg xmlns="http://www.w3.org/2000/svg" width="620" height="312" viewBox="0 0 620 312" role="img" aria-label="Auto Actions: when a post hits your milestone she reposts it automatically">
  <defs><linearGradient id="bg" x1="0" y1="0" x2="1" y2="1"><stop offset="0" stop-color="#0f0e1d"/><stop offset="1" stop-color="#171331"/></linearGradient></defs>
  <rect x="1" y="1" width="618" height="310" rx="22" fill="url(#bg)" stroke="#2a2150" stroke-width="1.5"/>
  <!-- post card -->
  <rect x="28" y="30" width="370" height="252" rx="16" fill="#1b1633" stroke="#2a2150" stroke-width="1"/>
  <circle cx="66" cy="70" r="20" fill="#7c3aed"/>
  <g transform="translate(55,59) scale(0.7)"><path d="M6.6 20.4 L8.2 10.6 L12.4 14.4 L16 8 L19.6 14.4 L23.8 10.6 L25.4 20.4 Z" fill="#ffffff"/><rect x="7" y="21.8" width="18" height="2.6" rx="1.3" fill="#ffffff"/></g>
  <text x="98" y="66" font-family="'Segoe UI',Helvetica,Arial,sans-serif" font-size="15.5" font-weight="700" fill="#ffffff">Your Cafe</text>
  <text x="98" y="84" font-family="'Segoe UI',Helvetica,Arial,sans-serif" font-size="13" fill="#8b84b5">@yourcafe · 2h</text>
  <svg viewBox="0 0 64 64" width="22" height="22" x="356" y="50">
<rect x="0.338867" y="0.925049" width="47.7769" height="47.7769" rx="11.9442" fill="black"/>
<path d="M26.5027 22.9855L35.3966 12.8693H33.2893L25.5632 21.6512L19.3969 12.8693H12.2831L21.6099 26.1503L12.2831 36.7577H14.3904L22.5444 27.4815L29.0578 36.7577H36.1715L26.5027 22.9855ZM23.6155 26.2668L22.669 24.9435L15.1503 14.4238H18.3876L24.4572 22.9167L25.3996 24.24L33.2883 35.279H30.0511L23.6155 26.2668Z" fill="white"/>


</svg>
  <rect x="52" y="112" width="304" height="8" rx="4" fill="#3b3268"/>
  <rect x="52" y="130" width="252" height="8" rx="4" fill="#3b3268"/>
  <rect x="52" y="148" width="278" height="8" rx="4" fill="#332a5c"/>
  <line x1="52" y1="184" x2="374" y2="184" stroke="#241d45" stroke-width="1.5"/>
  <circle cx="84" cy="224" r="24" fill="#2b1b3f"/>
  <path d="M84,219.2 c-1.6,-3.4 -6.4,-3 -6.4,0.6 c0,2.4 3.2,4.6 6.4,6.8 c3.2,-2.2 6.4,-4.4 6.4,-6.8 c0,-3.6 -4.8,-4 -6.4,-0.6 Z" fill="#f472b6"/>
  <text x="116" y="231" font-family="'Segoe UI',Helvetica,Arial,sans-serif" font-size="19" font-weight="800" fill="#f472b6">50</text>
  <circle cx="196" cy="224" r="24" fill="#14301f"/>
  <g transform="translate(196,224) scale(1.35)"><path d="M-6,-3 h9 a3,3 0 0 1 3,3 v3 M6,6 h-9 a3,3 0 0 1 -3,-3 v-3" fill="none" stroke="#4ade80" stroke-width="1.7" stroke-linecap="round"/><path d="M3,-6 L6,-3 L3,0 M-3,9 L-6,6 L-3,3" fill="none" stroke="#4ade80" stroke-width="1.7" stroke-linecap="round" stroke-linejoin="round"/></g>
  <text x="228" y="231" font-family="'Segoe UI',Helvetica,Arial,sans-serif" font-size="19" font-weight="800" fill="#4ade80">5</text>
  <path d="M294,218 h12 a4,4 0 0 1 4,4 v4 a4,4 0 0 1 -4,4 h-7 l-4,4 v-4 h-1 a4,4 0 0 1 -4,-4 v-4 a4,4 0 0 1 4,-4 Z" fill="none" stroke="#8b84b5" stroke-width="1.6"/>
  <text x="318" y="231" font-family="'Segoe UI',Helvetica,Arial,sans-serif" font-size="16" fill="#8b84b5">12</text>
  <!-- tooltip -->
  <path d="M398,158 L420,146 L420,170 Z" fill="#7c3aed"/>
  <rect x="418" y="112" width="188" height="92" rx="14" fill="#7c3aed"/>
  <text x="438" y="144" font-family="'Segoe UI',Helvetica,Arial,sans-serif" font-size="14.5" font-weight="700" fill="#ffffff">Your milestone:</text>
  <text x="438" y="164" font-family="'Segoe UI',Helvetica,Arial,sans-serif" font-size="14.5" font-weight="700" fill="#ffffff">50 likes.</text>
  <text x="438" y="188" font-family="'Segoe UI',Helvetica,Arial,sans-serif" font-size="13" fill="#e9d5ff">She reposts it, automatically.</text>
</svg>
