<svg xmlns="http://www.w3.org/2000/svg" width="410" height="260" viewBox="0 0 410 260" role="img" aria-label="Auto Actions: at 50 likes she reposts it automatically">
  <defs><linearGradient id="bg" x1="0" y1="0" x2="1" y2="1"><stop offset="0" stop-color="#0f0e1d"/><stop offset="1" stop-color="#171331"/></linearGradient></defs>
  <rect x="1" y="1" width="408" height="258" rx="18" fill="url(#bg)" stroke="#2a2150" stroke-width="1.5"/>
  <text x="24" y="36" font-family="'Segoe UI',Helvetica,Arial,sans-serif" font-size="15" font-weight="700" fill="#ffffff">Auto Actions</text>
  <!-- mini post -->
  <rect x="24" y="52" width="240" height="150" rx="12" fill="#1b1633" stroke="#2a2150" stroke-width="1"/>
  <g transform="translate(48,80) scale(0.55)"><rect width="32" height="32" rx="8" fill="#7c3aed"/><path d="M6.6 20.4 L8.2 10.6 L12.4 14.4 L16 8 L19.6 14.4 L23.8 10.6 L25.4 20.4 Z" fill="#ffffff"/><rect x="7" y="21.8" width="18" height="2.6" rx="1.3" fill="#ffffff"/></g>
  <text x="62" y="79" font-family="'Segoe UI',Helvetica,Arial,sans-serif" font-size="12.5" font-weight="600" fill="#e8e3ff">@yourcafe</text>
  <svg viewBox="0 0 64 64" width="16" height="16" x="240" y="64">
<rect x="0.338867" y="0.925049" width="47.7769" height="47.7769" rx="11.9442" fill="black"/>
<path d="M26.5027 22.9855L35.3966 12.8693H33.2893L25.5632 21.6512L19.3969 12.8693H12.2831L21.6099 26.1503L12.2831 36.7577H14.3904L22.5444 27.4815L29.0578 36.7577H36.1715L26.5027 22.9855ZM23.6155 26.2668L22.669 24.9435L15.1503 14.4238H18.3876L24.4572 22.9167L25.3996 24.24L33.2883 35.279H30.0511L23.6155 26.2668Z" fill="white"/>


</svg>
  <rect x="40" y="96" width="200" height="6" rx="3" fill="#3b3268"/>
  <rect x="40" y="110" width="168" height="6" rx="3" fill="#3b3268"/>
  <rect x="40" y="124" width="184" height="6" rx="3" fill="#332a5c"/>
  <path d="M56,155.2 c-1.6,-3.4 -6.4,-3 -6.4,0.6 c0,2.4 3.2,4.6 6.4,6.8 c3.2,-2.2 6.4,-4.4 6.4,-6.8 c0,-3.6 -4.8,-4 -6.4,-0.6 Z" fill="#f472b6"/><text x="72" y="163" font-family="'Segoe UI',Helvetica,Arial,sans-serif" font-size="12.5" font-weight="700" fill="#f472b6">50</text>
  <g transform="translate(110,157)"><path d="M-6,-3 h9 a3,3 0 0 1 3,3 v3 M6,6 h-9 a3,3 0 0 1 -3,-3 v-3" fill="none" stroke="#4ade80" stroke-width="1.8" stroke-linecap="round"/><path d="M3,-6 L6,-3 L3,0 M-3,9 L-6,6 L-3,3" fill="none" stroke="#4ade80" stroke-width="1.8" stroke-linecap="round" stroke-linejoin="round"/></g>
  <text x="124" y="163" font-family="'Segoe UI',Helvetica,Arial,sans-serif" font-size="12.5" fill="#4ade80">5</text>
  <!-- tooltip -->
  <rect x="196" y="180" width="190" height="56" rx="12" fill="#7c3aed"/>
  <path d="M250,180 L262,166 L272,180 Z" fill="#7c3aed"/>
  <text x="212" y="203" font-family="'Segoe UI',Helvetica,Arial,sans-serif" font-size="12.5" font-weight="600" fill="#ffffff">At 50 likes, she reposts it.</text>
  <text x="212" y="221" font-family="'Segoe UI',Helvetica,Arial,sans-serif" font-size="12" fill="#e9d5ff">Automatically, while you sleep.</text>
</svg>
