<svg xmlns="http://www.w3.org/2000/svg" width="720" height="96" viewBox="0 0 720 96" fill="none" role="img" aria-label="Supported social networks">
  <svg x="2" y="2" width="44" height="44" viewBox="0 0 70 71" overflow="visible"><title>instagram</title><rect y="0.496094" width="69.999" height="69.999" rx="14" fill="#1877F2"/>
<rect y="0.496094" width="69.999" height="69.999" rx="14" fill="url(#paint0_radial_292_12847)"/>
<path d="M27.3063 35.4953C27.3063 31.2456 30.7504 27.7996 35.0001 27.7996C39.2498 27.7996 42.6958 31.2456 42.6958 35.4953C42.6958 39.7449 39.2498 43.1909 35.0001 43.1909C30.7504 43.1909 27.3063 39.7449 27.3063 35.4953ZM23.1462 35.4953C23.1462 42.0422 28.4532 47.3492 35.0001 47.3492C41.5471 47.3492 46.8541 42.0422 46.8541 35.4953C46.8541 28.9483 41.5471 23.6413 35.0001 23.6413C28.4532 23.6413 23.1464 28.948 23.1464 35.4953M44.5533 23.1713C44.5531 23.7192 44.7153 24.2549 45.0196 24.7106C45.3238 25.1662 45.7563 25.5215 46.2624 25.7313C46.7685 25.9412 47.3255 25.9963 47.8629 25.8896C48.4003 25.783 48.894 25.5193 49.2816 25.132C49.6691 24.7448 49.9332 24.2513 50.0403 23.714C50.1474 23.1766 50.0927 22.6196 49.8833 22.1133C49.6738 21.6071 49.3189 21.1743 48.8635 20.8697C48.408 20.5651 47.8725 20.4024 47.3246 20.4022H47.3235C46.5891 20.4026 45.8849 20.6944 45.3654 21.2136C44.846 21.7328 44.5539 22.4369 44.5533 23.1713ZM25.6738 54.2861C23.4231 54.1837 22.1997 53.8088 21.3868 53.492C20.309 53.0724 19.54 52.5727 18.7314 51.7653C17.9229 50.9578 17.4224 50.1896 17.0047 49.1118C16.6877 48.2992 16.3128 47.0755 16.2105 44.8248C16.0986 42.3914 16.0763 41.6604 16.0763 35.4956C16.0763 29.3308 16.1005 28.6019 16.2105 26.1665C16.313 23.9158 16.6907 22.6945 17.0047 21.8795C17.4243 20.8017 17.924 20.0327 18.7314 19.2241C19.5388 18.4156 20.3071 17.9151 21.3868 17.4974C22.1994 17.1805 23.4231 16.8056 25.6738 16.7032C28.1071 16.5913 28.8381 16.569 35.0001 16.569C41.1622 16.569 41.8939 16.5928 44.3293 16.7036C46.58 16.8061 47.8013 17.1838 48.6163 17.4977C49.6941 17.9155 50.4631 18.4171 51.2716 19.2245C52.0801 20.0319 52.5788 20.8021 52.9984 21.8798C53.3153 22.6924 53.6902 23.9161 53.7925 26.1668C53.9044 28.6022 53.9268 29.3312 53.9268 35.496C53.9268 41.6608 53.9044 42.3898 53.7925 44.8251C53.69 47.0758 53.3133 48.2992 52.9984 49.1121C52.5788 50.1899 52.079 50.9589 51.2716 51.7656C50.4642 52.5723 49.6941 53.0728 48.6163 53.4924C47.8037 53.8093 46.58 54.1842 44.3293 54.2865C41.8959 54.3984 41.165 54.4208 35.0001 54.4208C28.8353 54.4208 28.1064 54.3984 25.6738 54.2865M25.4826 12.55C23.0251 12.6619 21.3458 13.0516 19.8792 13.6222C18.3613 14.2115 17.0746 15.0022 15.7898 16.2849C14.505 17.5677 13.7164 18.8546 13.1271 20.3743C12.5564 21.8418 12.1668 23.5202 12.0548 25.9777C11.9411 28.4392 11.915 29.2261 11.915 35.4953C11.915 41.7644 11.9411 42.5514 12.0548 45.0128C12.1668 47.4705 12.5564 49.1487 13.1271 50.6162C13.7164 52.1341 14.5052 53.4233 15.7898 54.7056C17.0745 55.9878 18.3595 56.7773 19.8792 57.3683C21.3485 57.9389 23.0251 58.3286 25.4826 58.4405C27.9453 58.5525 28.731 58.5803 35.0001 58.5803C41.2693 58.5803 42.0562 58.5543 44.5177 58.4405C46.9754 58.3286 48.6536 57.9389 50.1211 57.3683C51.6389 56.7773 52.9256 55.9883 54.2104 54.7056C55.4953 53.4228 56.2822 52.1341 56.8732 50.6162C57.4438 49.1487 57.8354 47.4703 57.9454 45.0128C58.0573 42.5495 58.0834 41.7644 58.0834 35.4953C58.0834 29.2261 58.0573 28.4392 57.9454 25.9777C57.8335 23.52 57.4438 21.8409 56.8732 20.3743C56.2822 18.8564 55.4932 17.5698 54.2104 16.2849C52.9277 15.0001 51.6389 14.2115 50.1229 13.6222C48.6536 13.0516 46.9752 12.66 44.5195 12.55C42.0577 12.4375 41.2712 12.4102 35.0029 12.4102C28.7347 12.4102 27.9463 12.4362 25.4835 12.55" fill="white"/>
<defs>
<radialGradient id="paint0_radial_292_12847" cx="0" cy="0" r="1" gradientUnits="userSpaceOnUse" gradientTransform="translate(4.53027 68.9617) scale(88.8728)">
<stop offset="0.09" stop-color="#FA8F21"/>
<stop offset="0.78" stop-color="#D82D7E"/>
</radialGradient>
</defs></svg>
  <svg x="50" y="2" width="44" height="44" viewBox="0 0 70 71" overflow="visible"><title>youtube</title><rect x="-0.00390625" y="0.496094" width="69.999" height="69.999" rx="14" fill="#FF0000"/>
<path d="M55.378 25.4767C54.8977 23.6925 53.4908 22.2856 51.7065 21.8052C48.4468 20.9131 35.4077 20.9131 35.4077 20.9131C35.4077 20.9131 22.3687 20.9131 19.1089 21.7709C17.359 22.2513 15.9178 23.6925 15.4374 25.4767C14.5796 28.7365 14.5796 35.4962 14.5796 35.4962C14.5796 35.4962 14.5796 42.2902 15.4374 45.5157C15.9178 47.3 17.3246 48.7068 19.1089 49.1872C22.403 50.0793 35.4077 50.0793 35.4077 50.0793C35.4077 50.0793 48.4468 50.0793 51.7065 49.2215C53.4908 48.7411 54.8977 47.3343 55.378 45.55C56.2359 42.2902 56.2359 35.5305 56.2359 35.5305C56.2359 35.5305 56.2702 28.7365 55.378 25.4767Z" fill="white"/>
<path d="M31.2554 41.741L42.0984 35.496L31.2554 29.251V41.741Z" fill="#FF0000"/></svg>
  <svg x="98" y="2" width="44" height="44" viewBox="0 0 32 32" overflow="visible"><title>google-business</title><rect width="31.9985" height="31.9985" rx="6" fill="white"/>
<g clip-path="url(#clip0_3072_9871)">
<path d="M27.2361 10.0178H4.67719C4.14118 10.0178 3.70667 10.444 3.70667 10.9696V27.0322C3.70667 27.5578 4.14118 27.984 4.67719 27.984H27.2361C27.7721 27.984 28.2067 27.5578 28.2067 27.0322V10.9696C28.2067 10.444 27.7721 10.0178 27.2361 10.0178Z" fill="#4989F5"/>
<path d="M26.953 9.88281H4.93323C4.25113 9.88281 3.72034 15.0599 3.72034 15.7289L15.779 27.9839H26.953C27.6372 27.9821 28.1914 27.4386 28.1932 26.7676V11.0989C28.1912 10.428 27.6371 9.88464 26.953 9.88281Z" fill="url(#paint0_linear_3072_9871)"/>
<path d="M9.30078 13.0265H16.3008V4.01636H10.3489L9.30078 13.0265Z" fill="#3C4BA6"/>
<path d="M23.3008 13.0265H16.3008V4.01636H22.2526L23.3008 13.0265ZM28.2066 5.72435L28.2153 5.75506C28.2132 5.74422 28.2089 5.73415 28.2066 5.72435Z" fill="#7BABF7"/>
<path d="M28.2153 5.75481L28.2066 5.7241C27.9847 4.72747 27.0852 4.01676 26.0451 4.01611H22.2527L23.3001 13.0265H30.3001L28.2153 5.75481Z" fill="#3F51B5"/>
<path d="M4.39504 5.72437L4.38635 5.75508C4.38846 5.74424 4.39267 5.73417 4.39504 5.72437Z" fill="#7BABF7"/>
<path d="M4.3861 5.75481L4.39479 5.7241C4.61671 4.72747 5.51618 4.01676 6.55637 4.01611H10.349L9.30005 13.0265H2.30005L4.3861 5.75481Z" fill="#7BABF7"/>
<path fill-rule="evenodd" clip-rule="evenodd" d="M9.3127 13.0242C9.3127 14.9188 7.74657 16.4547 5.81468 16.4547C3.88278 16.4547 2.31665 14.9188 2.31665 13.0242H9.3127Z" fill="#709BE0"/>
<path fill-rule="evenodd" clip-rule="evenodd" d="M16.3087 13.0242C16.3087 14.9188 14.7425 16.4547 12.8106 16.4547C10.8788 16.4547 9.31262 14.9188 9.31262 13.0242H16.3087Z" fill="#3C4BA6"/>
<path fill-rule="evenodd" clip-rule="evenodd" d="M23.3048 13.0242C23.3048 14.9188 21.7386 16.4547 19.8067 16.4547C17.8748 16.4547 16.3087 14.9188 16.3087 13.0242H23.3048Z" fill="#709BE0"/>
<path fill-rule="evenodd" clip-rule="evenodd" d="M30.3 13.0242C30.3 14.9188 28.7339 16.4547 26.802 16.4547C24.8701 16.4547 23.304 14.9188 23.304 13.0242H30.3Z" fill="#3C4BA6"/>
<path d="M26.8021 22.3185C26.7898 22.1552 26.7692 22.006 26.74 21.8155H22.9242C22.9242 22.3389 22.9242 22.9101 22.9221 23.4337H25.1327C25.0857 23.6778 24.99 23.9103 24.8512 24.118C24.7123 24.3256 24.533 24.5044 24.3234 24.6439C24.3234 24.6439 24.3234 24.6348 24.3219 24.6346C24.0513 24.8088 23.7465 24.9255 23.4271 24.9771C23.1069 25.0345 22.7786 25.0331 22.459 24.9729C22.1344 24.907 21.827 24.7764 21.5561 24.5892C21.1561 24.311 20.8476 23.9244 20.6684 23.4768C20.6548 23.442 20.6421 23.4069 20.6292 23.3713V23.3674L20.6327 23.3648C20.4587 22.8642 20.4583 22.3213 20.6313 21.8204C20.7532 21.4691 20.9538 21.149 21.2184 20.8836C21.8392 20.2539 22.7666 20.0171 23.6216 20.2699C23.9495 20.3685 24.249 20.5414 24.4961 20.7747L25.2419 20.0433C25.3734 19.913 25.51 19.7868 25.6366 19.652C25.2584 19.3061 24.8146 19.0365 24.3303 18.8587C23.4489 18.5453 22.4847 18.537 21.5979 18.8352C21.567 18.8455 21.5363 18.8563 21.5058 18.8675C20.5491 19.2202 19.762 19.912 19.3 20.8062C19.1369 21.1227 19.0181 21.4593 18.9469 21.807C18.5244 23.8658 19.8054 25.8923 21.8734 26.437C22.5495 26.6146 23.2682 26.6102 23.9495 26.4584C24.5685 26.3214 25.1409 26.0297 25.6111 25.6117C26.1016 25.1691 26.4532 24.5793 26.6374 23.953C26.7914 23.4222 26.8472 22.8686 26.8021 22.3185Z" fill="white"/>
</g>
<defs>
<linearGradient id="paint0_linear_3072_9871" x1="3.72034" y1="8414.88" x2="26042.6" y2="8414.88" gradientUnits="userSpaceOnUse">
<stop offset="0.03" stop-color="#4079D8"/>
<stop offset="1" stop-color="#4989F5"/>
</linearGradient>
<clipPath id="clip0_3072_9871">
<rect width="28" height="24" fill="white" transform="translate(2.30005 4)"/>
</clipPath>
</defs></svg>
  <svg x="146" y="2" width="44" height="44" viewBox="0 0 70 71" overflow="visible"><title>dribbble</title><rect x="-0.00488281" y="0.496094" width="70.0023" height="70.0023" rx="14" fill="#EA4C89"/>
<path d="M34.9967 56.056C46.3506 56.056 55.5547 46.8519 55.5547 35.498C55.5547 24.1441 46.3506 14.9399 34.9967 14.9399C23.6428 14.9399 14.4386 24.1441 14.4386 35.498C14.4386 46.8519 23.6428 56.056 34.9967 56.056Z" fill="#EA4C89"/>
<path fill-rule="evenodd" clip-rule="evenodd" d="M34.9964 14.2759C23.281 14.2759 13.7751 23.7817 13.7751 35.4971C13.7751 47.2125 23.281 56.7183 34.9964 56.7183C46.6887 56.7183 56.2176 47.2125 56.2176 35.4971C56.2176 23.7817 46.6887 14.2759 34.9964 14.2759ZM49.0134 24.0579C51.5452 27.1421 53.0644 31.0779 53.1104 35.3359C52.512 35.221 46.5276 34.001 40.4973 34.7606C40.3592 34.4614 40.2441 34.1391 40.106 33.8169C39.7377 32.9423 39.3235 32.0447 38.9092 31.193C45.5839 28.4771 48.6221 24.5643 49.0134 24.0579ZM34.9964 17.4061C39.5996 17.4061 43.8116 19.1324 47.011 21.9634C46.6887 22.4237 43.9497 26.0833 37.5051 28.5001C34.536 23.0452 31.2447 18.58 30.7383 17.8895C32.0962 17.5672 33.5233 17.4061 34.9964 17.4061ZM27.2859 19.1093C27.7692 19.7538 30.9915 24.242 34.0067 29.5818C25.5366 31.8375 18.0562 31.7915 17.2506 31.7915C18.4245 26.1754 22.2222 21.5031 27.2859 19.1093ZM16.8594 35.5202C16.8594 35.3359 16.8594 35.1518 16.8594 34.9678C17.6419 34.9907 26.4342 35.1058 35.4797 32.3899C36.0091 33.4026 36.4925 34.4383 36.9528 35.474C36.7226 35.5431 36.4694 35.6122 36.2393 35.6812C26.8946 38.6963 21.923 46.9363 21.5087 47.6267C18.6316 44.4275 16.8594 40.1695 16.8594 35.5202ZM34.9964 53.6341C30.8073 53.6341 26.9406 52.2071 23.8794 49.8133C24.2016 49.1459 27.8842 42.0568 38.1035 38.4893C38.1496 38.4662 38.1726 38.4662 38.2187 38.4433C40.7734 45.0489 41.8093 50.5959 42.0854 52.184C39.8989 53.1277 37.5051 53.6341 34.9964 53.6341ZM45.1006 50.5269C44.9165 49.4221 43.9497 44.1283 41.579 37.6146C47.2642 36.7169 52.2357 38.1901 52.8572 38.3972C52.0747 43.4378 49.1745 47.7879 45.1006 50.5269Z" fill="white"/></svg>
  <svg x="194" y="2" width="44" height="44" viewBox="0 0 70 71" overflow="visible"><title>linkedin</title><rect x="-0.00683594" y="0.496094" width="69.999" height="69.999" rx="14" fill="#0A66C2"/>
<g clip-path="url(#clip0_292_12933)">
<path d="M14.5767 20.5267C14.5767 19.2129 15.0365 18.129 15.9561 17.2751C16.8758 16.4211 18.0714 15.9941 19.5428 15.9941C20.988 15.9941 22.1572 16.4145 23.0506 17.2554C23.9703 18.1225 24.4301 19.2523 24.4301 20.645C24.4301 21.9062 23.9834 22.9572 23.0901 23.7981C22.1704 24.6652 20.9617 25.0987 19.464 25.0987H19.4246C17.9794 25.0987 16.8101 24.6652 15.9167 23.7981C15.0233 22.931 14.5767 21.8405 14.5767 20.5267ZM15.089 55.0139L15.089 28.6854H23.8389V55.0139H15.089ZM28.6868 55.0139H37.4367V40.3125C37.4367 39.3928 37.5418 38.6834 37.752 38.1841C38.1199 37.2908 38.6782 36.5353 39.4271 35.9178C40.176 35.3004 41.1153 34.9916 42.2452 34.9916C45.1881 34.9916 46.6595 36.9754 46.6595 40.9431V55.0139H55.4094V39.9184C55.4094 36.0295 54.4898 33.0801 52.6505 31.0699C50.8111 29.0598 48.3806 28.0548 45.3589 28.0548C41.9693 28.0548 39.3286 29.5131 37.4367 32.4297V32.5086H37.3973L37.4367 32.4297V28.6854H28.6868C28.7394 29.5262 28.7657 32.1407 28.7657 36.5288C28.7657 40.9168 28.7394 47.0785 28.6868 55.0139Z" fill="white"/>
</g>
<defs>
<clipPath id="clip0_292_12933">
<rect x="14.5767" y="15.0801" width="40.8328" height="40.8328" fill="white"/>
</clipPath>
</defs></svg>
  <svg x="242" y="2" width="44" height="44" viewBox="0 0 70 71" overflow="visible"><title>reddit</title><rect x="-0.00195312" y="0.496094" width="69.999" height="69.999" rx="14" fill="#FF4500"/>
<path d="M58.3307 35.4955C58.3307 32.671 56.0384 30.3786 53.2138 30.3786C51.822 30.3786 50.594 30.9107 49.6934 31.8113C46.2139 29.3143 41.3836 27.6769 36.062 27.4722L38.3953 16.5425L45.9683 18.139C46.0502 20.0629 47.6467 21.6185 49.6116 21.6185C51.6174 21.6185 53.2548 19.9811 53.2548 17.9753C53.2548 15.9694 51.6174 14.332 49.6116 14.332C48.1788 14.332 46.9508 15.1507 46.3777 16.3788L37.9041 14.5776C37.6585 14.5367 37.4129 14.5776 37.2082 14.7004C37.0035 14.8233 36.8807 15.0279 36.7989 15.2735L34.22 27.4722C28.7756 27.6359 23.9043 29.2324 20.3839 31.8113C19.4833 30.9517 18.2143 30.3786 16.8635 30.3786C14.0389 30.3786 11.7466 32.671 11.7466 35.4955C11.7466 37.5832 12.9746 39.3434 14.7758 40.1621C14.6939 40.6533 14.653 41.1855 14.653 41.7176C14.653 49.5772 23.7815 55.9221 35.0796 55.9221C46.3777 55.9221 55.5062 49.5772 55.5062 41.7176C55.5062 41.1855 55.4653 40.6942 55.3834 40.203C57.0617 39.3843 58.3307 37.5832 58.3307 35.4955ZM23.3312 39.1387C23.3312 37.1329 24.9686 35.4955 26.9744 35.4955C28.9803 35.4955 30.6177 37.1329 30.6177 39.1387C30.6177 41.1445 28.9803 42.7819 26.9744 42.7819C24.9686 42.7819 23.3312 41.1445 23.3312 39.1387ZM43.676 48.7584C41.1789 51.2555 36.4304 51.4192 35.0387 51.4192C33.6469 51.4192 28.8575 51.2146 26.4013 48.7584C26.0329 48.39 26.0329 47.776 26.4013 47.4076C26.7698 47.0392 27.3838 47.0392 27.7522 47.4076C29.3077 48.9631 32.6644 49.5362 35.0796 49.5362C37.4948 49.5362 40.8105 48.9631 42.407 47.4076C42.7754 47.0392 43.3894 47.0392 43.7578 47.4076C44.0444 47.8169 44.0444 48.39 43.676 48.7584ZM43.021 42.7819C41.0152 42.7819 39.3778 41.1445 39.3778 39.1387C39.3778 37.1329 41.0152 35.4955 43.021 35.4955C45.0268 35.4955 46.6642 37.1329 46.6642 39.1387C46.6642 41.1445 45.0268 42.7819 43.021 42.7819Z" fill="white"/></svg>
  <svg x="290" y="2" width="44" height="44" viewBox="0 0 70 71" overflow="visible"><title>tiktok</title><rect x="-0.00292969" y="0.496094" width="69.999" height="69.999" rx="14" fill="#242424"/>
<path d="M42.7751 30.6611C45.5509 32.6524 48.9515 33.8241 52.6242 33.8241V26.7314C51.9291 26.7316 51.2358 26.6588 50.5558 26.5143V32.0972C46.8834 32.0972 43.4833 30.9255 40.7067 28.9343V43.4084C40.7067 50.6491 34.8578 56.5184 27.6433 56.5184C24.9514 56.5184 22.4494 55.7017 20.371 54.301C22.7431 56.7351 26.0513 58.2451 29.7113 58.2451C36.9262 58.2451 42.7754 52.3758 42.7754 45.1349V30.6611H42.7751ZM45.3266 23.5055C43.908 21.9501 42.9766 19.9401 42.7751 17.7179V16.8057H40.815C41.3083 19.63 42.9912 22.043 45.3266 23.5055ZM24.9341 48.7447C24.1416 47.7018 23.7132 46.4259 23.7152 45.1141C23.7152 41.8025 26.3904 39.1174 29.6909 39.1174C30.306 39.1173 30.9174 39.2118 31.5036 39.3985V32.1473C30.8186 32.053 30.1272 32.0131 29.4361 32.0277V37.6717C28.8495 37.485 28.2378 37.3902 27.6225 37.3908C24.322 37.3908 21.6469 40.0756 21.6469 43.3877C21.6469 45.7295 22.9841 47.757 24.9341 48.7447Z" fill="#FF004F"/>
<path d="M40.7078 28.9342C43.4844 30.9254 46.8845 32.0971 50.557 32.0971V26.5141C48.507 26.0759 46.6923 25.0008 45.3278 23.5055C42.9922 22.0428 41.3095 19.6299 40.8161 16.8057H35.6675V45.1346C35.6559 48.4372 32.9852 51.1113 29.6918 51.1113C27.751 51.1113 26.0268 50.1829 24.9349 48.7447C22.985 47.757 21.6478 45.7294 21.6478 43.3878C21.6478 40.0761 24.3229 37.391 27.6234 37.391C28.2557 37.391 28.8652 37.4898 29.437 37.6718V32.0279C22.3492 32.1748 16.6489 37.9868 16.6489 45.1347C16.6489 48.7029 18.0684 51.9376 20.3723 54.3011C22.4507 55.7017 24.9527 56.5185 27.6446 56.5185C34.8593 56.5185 40.708 50.6489 40.708 43.4084V28.9342H40.7078Z" fill="white"/>
<path d="M50.5555 26.5132V25.0036C48.707 25.0064 46.8947 24.4869 45.3264 23.5044C46.7147 25.0298 48.5429 26.0816 50.5555 26.5132ZM40.8147 16.8047C40.7676 16.5348 40.7315 16.2631 40.7064 15.9904V15.0781H33.5975V43.4073C33.5862 46.7095 30.9156 49.3836 27.6219 49.3836C26.6549 49.3836 25.7419 49.1532 24.9334 48.7439C26.0254 50.1819 27.7495 51.1102 29.6903 51.1102C32.9834 51.1102 35.6545 48.4364 35.6661 45.1338V16.8047H40.8147ZM29.4358 32.0269V30.4199C28.8418 30.3384 28.2429 30.2975 27.6433 30.2978C20.4281 30.2977 14.5792 36.1673 14.5792 43.4073C14.5792 47.9465 16.8779 51.9468 20.371 54.2999C18.0671 51.9366 16.6476 48.7017 16.6476 45.1337C16.6476 37.9859 22.3477 32.1739 29.4358 32.0269Z" fill="#00F2EA"/></svg>
  <svg x="338" y="2" width="44" height="44" viewBox="0 0 70 71" overflow="visible"><title>facebook</title><g clip-path="url(#clip0_292_12843)">
<rect x="-0.000976562" y="0.496094" width="69.999" height="69.999" rx="14" fill="#1877F2"/>
<path d="M48.6222 45.6128L50.1739 35.4958H40.467V28.9334C40.467 26.1649 41.8205 23.4647 46.1681 23.4647H50.5841V14.8516C50.5841 14.8516 46.5783 14.168 42.7502 14.168C34.7522 14.168 29.5297 19.0146 29.5297 27.785V35.4958H20.6431V45.6128H29.5297V70.0715C31.3138 70.3517 33.139 70.4953 34.9983 70.4953C36.8577 70.4953 38.6829 70.3517 40.467 70.0715V45.6128H48.6222Z" fill="white"/>
</g>
<defs>
<clipPath id="clip0_292_12843">
<rect x="-0.000976562" y="0.496094" width="69.999" height="69.999" rx="14" fill="white"/>
</clipPath>
</defs></svg>
  <svg x="386" y="2" width="44" height="44" viewBox="0 0 70 71" overflow="visible"><title>pinterest</title><rect x="-0.00244141" y="0.496094" width="69.9956" height="69.9956" rx="14" fill="#BD081C"/>
<path d="M34.9871 14.4951C23.3778 14.4951 13.9971 23.8931 13.9971 35.4851C13.9971 44.3821 19.5253 51.9835 27.334 55.0413C27.1439 53.3828 26.9884 50.826 27.403 49.0121C27.7831 47.3708 29.8562 38.5775 29.8562 38.5775C29.8562 38.5775 29.2343 37.3164 29.2343 35.4679C29.2343 32.5483 30.9273 30.3715 33.0349 30.3715C34.8316 30.3715 35.6954 31.719 35.6954 33.3257C35.6954 35.1224 34.5552 37.8174 33.9506 40.3223C33.4496 42.4127 35.0044 44.123 37.0602 44.123C40.7917 44.123 43.6595 40.1841 43.6595 34.5177C43.6595 29.4905 40.0489 25.9835 34.8834 25.9835C28.906 25.9835 25.3991 30.4579 25.3991 35.0878C25.3991 36.8845 26.0901 38.8193 26.9539 39.8732C27.1267 40.0805 27.1439 40.2705 27.0921 40.4778C26.9366 41.1343 26.5738 42.5682 26.5047 42.8619C26.4183 43.242 26.1937 43.3284 25.7964 43.1383C23.205 41.8944 21.5811 38.0592 21.5811 34.9841C21.5811 28.3676 26.3838 22.2865 35.4536 22.2865C42.7267 22.2865 48.3931 27.4692 48.3931 34.414C48.3931 41.6526 43.8323 47.4745 37.5094 47.4745C35.3844 47.4745 33.3804 46.3689 32.7067 45.0559C32.7067 45.0559 31.6529 49.0639 31.3938 50.0486C30.9273 51.8798 29.6489 54.1602 28.7851 55.5596C30.7546 56.1642 32.8276 56.4925 35.0044 56.4925C46.5964 56.4925 55.9944 47.0945 55.9944 35.5024C55.9771 23.8931 46.5791 14.4951 34.9871 14.4951Z" fill="white"/></svg>
  <svg x="434" y="2" width="44" height="44" viewBox="0 0 71 70" overflow="visible"><title>threads</title><rect x="0.983398" y="0.00915527" width="69.999" height="69.999" rx="14" fill="black"/>
<path d="M47.1133 33.3386C46.913 33.2442 46.7095 33.1533 46.5033 33.0663C46.1443 26.5619 42.5296 22.8382 36.4601 22.8001C36.4326 22.7999 36.4053 22.7999 36.3778 22.7999C32.7475 22.7999 29.7282 24.3235 27.8698 27.0961L31.2078 29.3475C32.5961 27.2765 34.7748 26.835 36.3794 26.835C36.3979 26.835 36.4165 26.835 36.4349 26.8352C38.4333 26.8477 39.9414 27.419 40.9174 28.5332C41.6277 29.3443 42.1027 30.4652 42.338 31.8798C40.5661 31.5837 38.6499 31.4926 36.6014 31.6081C30.8308 31.9349 27.121 35.244 27.3702 39.8422C27.4966 42.1745 28.6784 44.1811 30.6976 45.4919C32.4049 46.6 34.6038 47.1418 36.889 47.0192C39.907 46.8565 42.2745 45.7244 43.9262 43.6542C45.1806 42.0821 45.974 40.0449 46.3243 37.4778C47.7625 38.3313 48.8285 39.4544 49.4171 40.8045C50.4181 43.0995 50.4765 46.8708 47.3468 49.9454C44.6048 52.6389 41.3086 53.8041 36.3273 53.8401C30.8016 53.7998 26.6226 52.0575 23.9056 48.6613C21.3613 45.4812 20.0464 40.8878 19.9973 35.0087C20.0464 29.1296 21.3613 24.5362 23.9056 21.3561C26.6226 17.96 30.8015 16.2176 36.3272 16.1772C41.893 16.2179 46.1448 17.9686 48.9658 21.3812C50.3491 23.0546 51.392 25.1591 52.0795 27.6129L55.9912 26.5867C55.1579 23.5664 53.8465 20.9638 52.0621 18.8053C48.4455 14.4303 43.1561 12.1886 36.3408 12.1421H36.3136C29.5122 12.1884 24.282 14.4387 20.7684 18.8304C17.6418 22.7385 16.029 28.1763 15.9748 34.9926L15.9746 35.0087L15.9748 35.0248C16.029 41.8411 17.6418 47.279 20.7684 51.1871C24.282 55.5787 29.5122 57.8291 36.3136 57.8753H36.3408C42.3876 57.8341 46.6499 56.2775 50.1611 52.8283C54.755 48.3157 54.6167 42.6593 53.1026 39.1869C52.0163 36.6968 49.9453 34.6743 47.1133 33.3386ZM36.673 42.9899C34.1438 43.1299 31.5163 42.0138 31.3868 39.623C31.2907 37.8504 32.6698 35.8724 36.8282 35.6368C37.3044 35.6098 37.7717 35.5966 38.2308 35.5966C39.7412 35.5966 41.1543 35.7409 42.439 36.017C41.9598 41.9009 39.1492 42.8563 36.673 42.9899Z" fill="white"/></svg>
  <svg x="482" y="2" width="44" height="44" viewBox="0 0 49 49" overflow="visible"><title>x</title><rect x="0.338867" y="0.925049" width="47.7769" height="47.7769" rx="11.9442" fill="black"/>
<path d="M26.5027 22.9855L35.3966 12.8693H33.2893L25.5632 21.6512L19.3969 12.8693H12.2831L21.6099 26.1503L12.2831 36.7577H14.3904L22.5444 27.4815L29.0578 36.7577H36.1715L26.5027 22.9855ZM23.6155 26.2668L22.669 24.9435L15.1503 14.4238H18.3876L24.4572 22.9167L25.3996 24.24L33.2883 35.279H30.0511L23.6155 26.2668Z" fill="white"/></svg>
  <svg x="530" y="2" width="44" height="44" viewBox="0 0 33 32" overflow="visible"><title>slack</title><rect x="0.36377" width="31.9969" height="31.9969" rx="6" fill="#400F41"/>
<g clip-path="url(#clip0_3143_6150)">
<path d="M9.35432 19.7481C9.35432 21.1851 8.1929 22.3465 6.7559 22.3465C5.31889 22.3465 4.15747 21.1851 4.15747 19.7481C4.15747 18.3111 5.31889 17.1497 6.7559 17.1497H9.35432V19.7481ZM10.6535 19.7481C10.6535 18.3111 11.815 17.1497 13.252 17.1497C14.689 17.1497 15.8504 18.3111 15.8504 19.7481V26.2441C15.8504 27.6812 14.689 28.8426 13.252 28.8426C11.815 28.8426 10.6535 27.6812 10.6535 26.2441V19.7481Z" fill="#E01E5A"/>
<path d="M13.252 9.31501C11.815 9.31501 10.6536 8.1536 10.6536 6.71659C10.6536 5.27958 11.815 4.11816 13.252 4.11816C14.689 4.11816 15.8504 5.27958 15.8504 6.71659V9.31501H13.252ZM13.252 10.6339C14.689 10.6339 15.8504 11.7953 15.8504 13.2323C15.8504 14.6693 14.689 15.8308 13.252 15.8308H6.73624C5.29923 15.8308 4.13782 14.6693 4.13782 13.2323C4.13782 11.7953 5.29923 10.6339 6.73624 10.6339H13.252Z" fill="#36C5F0"/>
<path d="M23.6654 13.2323C23.6654 11.7953 24.8268 10.6339 26.2638 10.6339C27.7008 10.6339 28.8622 11.7953 28.8622 13.2323C28.8622 14.6693 27.7008 15.8308 26.2638 15.8308H23.6654V13.2323ZM22.3662 13.2323C22.3662 14.6693 21.2047 15.8308 19.7677 15.8308C18.3307 15.8308 17.1693 14.6693 17.1693 13.2323V6.71659C17.1693 5.27958 18.3307 4.11816 19.7677 4.11816C21.2047 4.11816 22.3662 5.27958 22.3662 6.71659V13.2323Z" fill="#2EB67D"/>
<path d="M19.7677 23.6457C21.2047 23.6457 22.3662 24.8071 22.3662 26.2441C22.3662 27.6812 21.2047 28.8426 19.7677 28.8426C18.3307 28.8426 17.1693 27.6812 17.1693 26.2441V23.6457H19.7677ZM19.7677 22.3465C18.3307 22.3465 17.1693 21.1851 17.1693 19.7481C17.1693 18.3111 18.3307 17.1497 19.7677 17.1497H26.2835C27.7205 17.1497 28.8819 18.3111 28.8819 19.7481C28.8819 21.1851 27.7205 22.3465 26.2835 22.3465H19.7677Z" fill="#ECB22E"/>
</g>
<defs>
<clipPath id="clip0_3143_6150">
<rect width="25" height="25" fill="white" transform="translate(4 4)"/>
</clipPath>
</defs></svg>
  <svg x="578" y="2" width="44" height="44" viewBox="0 0 33 32" overflow="visible"><title>discord</title><rect x="0.36377" width="31.9969" height="31.9969" rx="6" fill="#5662EB"/>
<path d="M25.4756 7.67453C23.7413 6.88135 21.9106 6.31848 20.0303 6.00024C19.7741 6.46043 19.542 6.93365 19.335 7.418C18.3348 7.26713 17.3247 7.1912 16.3131 7.19083C15.3033 7.19083 14.2885 7.26758 13.291 7.41605C13.0873 6.93519 12.8507 6.45839 12.594 6C10.7135 6.32127 8.88271 6.88527 7.14744 7.67786C3.70111 12.7762 2.76714 17.7471 3.23412 22.6475C5.25217 24.138 7.51076 25.2716 9.9118 25.9991C10.4503 25.2723 10.9326 24.4984 11.3421 23.6931C10.5608 23.4021 9.80676 23.0422 9.08897 22.6179C9.27785 22.481 9.46258 22.3399 9.64107 22.2028C11.7282 23.1831 14.0088 23.6944 16.3162 23.6944C18.6237 23.6944 20.9042 23.1831 22.9915 22.2026C23.1721 22.35 23.3569 22.4912 23.5436 22.6178C22.8244 23.0429 22.069 23.4036 21.2863 23.6959C21.6973 24.5029 22.1758 25.2737 22.7168 26C25.12 25.2748 27.3804 24.1412 29.3989 22.6489L29.3983 22.6495C29.9463 16.9667 28.4622 12.0414 25.4756 7.67453ZM11.9327 19.6338C10.6313 19.6338 9.5562 18.4528 9.5562 16.9999C9.5562 15.547 10.5939 14.3557 11.9285 14.3557C13.2631 14.3557 14.3299 15.547 14.3071 16.9999C14.2842 18.4528 13.259 19.6338 11.9327 19.6338ZM20.6998 19.6338C19.3963 19.6338 18.3253 18.4528 18.3253 16.9999C18.3253 15.547 19.3631 14.3557 20.6998 14.3557C22.0364 14.3557 23.0949 15.547 23.0721 16.9999C23.0493 18.4528 22.026 19.6338 20.6998 19.6338Z" fill="white"/></svg>
  <svg x="626" y="2" width="44" height="44" viewBox="0 0 33 32" overflow="visible"><title>mastodon</title><rect x="0.36377" width="31.9969" height="31.9969" rx="6" fill="#563ACC"/>
<path d="M16.9324 4.00032C13.6371 4.01309 10.3653 4.41306 8.66282 5.16348C8.66282 5.16348 5 6.75754 5 12.1873C5 18.6506 4.99509 26.7674 11.0685 28.3371C13.3944 28.9347 15.3946 29.0634 17.0027 28.9747C19.921 28.8172 21.3644 27.9623 21.3644 27.9623L21.2664 25.9008C21.2664 25.9008 19.3748 26.538 17.0325 26.465C14.7121 26.3868 12.2674 26.2203 11.8867 23.4502C11.8518 23.1926 11.8345 22.9317 11.8356 22.672C16.7525 23.8391 20.9453 23.1804 22.0995 23.0469C25.3222 22.6724 28.1277 20.7405 28.4855 18.9748C29.0463 16.1921 28.999 12.1873 28.999 12.1873C28.999 6.75754 25.3426 5.16348 25.3426 5.16348C23.5474 4.36195 20.2276 3.98754 16.9324 4.00032ZM13.4059 8.14166C14.535 8.17061 15.6506 8.6535 16.3379 9.67353L17.0027 10.7532L17.6654 9.67353C19.0454 7.622 22.1386 7.75001 23.6103 9.33742C24.9674 10.8476 24.665 11.8224 24.665 18.5694V18.5714H21.9951V12.7006C21.9951 9.95237 18.3302 9.84623 18.3302 13.0815V16.4834H15.6774V13.0815C15.6774 9.84623 12.0145 9.95033 12.0145 12.6986V18.5694H9.33828C9.33828 11.8172 9.04131 10.8362 10.393 9.33742C11.1343 8.5385 12.2769 8.11272 13.4059 8.14166Z" fill="white"/></svg>
  <svg x="674" y="2" width="44" height="44" viewBox="0 0 33 32" overflow="visible"><title>bluesky</title><rect x="0.36377" width="31.9969" height="31.9969" rx="6" fill="#3299FF"/>
<g clip-path="url(#clip0_3143_6150)">
<path d="M10.7502 9.41217C13.0775 11.0134 15.5809 14.2601 16.5 16.0024C17.4191 14.2602 19.9223 11.0134 22.2498 9.41217C23.9291 8.25678 26.65 7.3628 26.65 10.2075C26.65 10.7756 26.2945 14.98 26.0861 15.6626C25.3615 18.0356 22.721 18.6409 20.3723 18.2746C24.4778 18.9149 25.5222 21.036 23.2667 23.1571C18.9831 27.1854 17.1099 22.1464 16.6297 20.8552C16.5417 20.6184 16.5005 20.5077 16.4999 20.6019C16.4993 20.5077 16.4581 20.6184 16.3701 20.8552C15.8902 22.1464 14.017 27.1856 9.73309 23.1571C7.47755 21.036 8.52192 18.9148 12.6275 18.2746C10.2787 18.6409 7.63824 18.0356 6.91374 15.6626C6.70527 14.9799 6.34985 10.7755 6.34985 10.2075C6.34985 7.3628 9.07082 8.25678 10.7501 9.41217H10.7502Z" fill="white"/>
</g>
<defs>
<clipPath id="clip0_3143_6150">
<rect width="21" height="17" fill="white" transform="translate(6 8)"/>
</clipPath>
</defs></svg>
  <svg x="2" y="50" width="44" height="44" viewBox="0 0 33 32" overflow="visible"><title>lemmy</title><rect x="0.36377" width="31.9969" height="31.9969" rx="6" fill="white"/>
<g clip-path="url(#clip0_3143_6150)">
<path d="M5.25809 6.86405C5.2272 6.86398 5.19637 6.86418 5.16561 6.86475C5.02498 6.86728 4.88569 6.87645 4.74806 6.89231C3.64703 7.01912 2.65533 7.60483 2.04737 8.62844C1.45165 9.63144 1.30507 10.7359 1.60869 11.7592C1.91231 12.7826 2.64779 13.7123 3.73666 14.4489C3.74323 14.4533 3.74991 14.4576 3.75671 14.4617C4.69052 15.0248 5.6202 15.4045 6.61614 15.6008C6.59184 16.0119 6.5925 16.4342 6.61881 16.8667C6.69833 18.1739 7.16003 19.3773 7.86032 20.4408L5.3507 21.4653C5.08002 21.5716 4.9485 21.8787 5.05839 22.1479C5.16829 22.4171 5.47713 22.5444 5.74483 22.4309L8.50503 21.3041C9.0169 21.9144 9.60503 22.4669 10.2362 22.9521C10.2603 22.9706 10.2848 22.9887 10.309 23.007L8.69223 25.1478C8.51447 25.3775 8.5586 25.7081 8.79035 25.8832C9.02211 26.0582 9.3522 26.0102 9.52446 25.7763L11.1665 23.602C12.0688 24.1735 13.0265 24.6189 13.9715 24.9138C14.4565 25.8028 15.4045 26.3688 16.5 26.3688C17.606 26.3688 18.5545 25.7598 19.0355 24.888C19.971 24.5878 20.9176 24.1407 21.8104 23.5714L23.4756 25.7763C23.6479 26.0102 23.978 26.0582 24.2097 25.8832C24.4415 25.7081 24.4856 25.3775 24.3079 25.1478L22.6666 22.9746C22.6775 22.9664 22.6886 22.9583 22.6994 22.95C23.3231 22.4726 23.9061 21.9304 24.417 21.3324L27.1076 22.4309C27.3753 22.5444 27.6841 22.4171 27.794 22.1479C27.9039 21.8787 27.7724 21.5716 27.5017 21.4653L25.0726 20.4737C25.7951 19.4038 26.2796 18.1914 26.3808 16.8739C26.4142 16.4388 26.4208 16.0127 26.4016 15.5972C27.3908 15.3999 28.3151 15.0214 29.2434 14.4617C29.2502 14.4576 29.2569 14.4533 29.2634 14.4489C30.3523 13.7123 31.0878 12.7826 31.3914 11.7592C31.695 10.7359 31.5484 9.63144 30.9527 8.62844C30.3448 7.60483 29.3531 7.01912 28.252 6.89231C28.1144 6.87645 27.9751 6.86728 27.8345 6.86475C26.85 6.847 25.7996 7.15232 24.7896 7.73536C24.0467 8.16425 23.3768 8.82104 22.8526 9.53769C21.3862 8.69849 19.4782 8.22595 17.1339 8.18721C16.9237 8.18374 16.7099 8.18373 16.4926 8.18728C13.8793 8.22995 11.7873 8.72528 10.2071 9.62094C10.2032 9.61471 10.1992 9.60858 10.195 9.60255C9.66414 8.86069 8.97583 8.1772 8.21046 7.73536C7.23205 7.17054 6.21567 6.86637 5.25809 6.86405Z" stroke="white" stroke-width="0.912494" stroke-linecap="round" stroke-linejoin="round"/>
<path d="M23.176 9.86803C23.6743 9.17168 24.3284 8.52832 25.0176 8.13047C27.1901 6.87631 29.4831 7.0478 30.5603 8.86145C31.6389 10.6773 31.0487 12.6903 29.0076 14.071C27.9662 14.6989 26.9567 15.0787 25.839 15.2293M9.82383 9.86803C9.32552 9.17168 8.67142 8.52832 7.98223 8.13047C5.80972 6.87631 3.51668 7.0478 2.43948 8.86145C1.36094 10.6773 1.95108 12.6903 3.99215 14.071C5.03355 14.6989 6.04308 15.0787 7.16075 15.2293" fill="white"/>
<path d="M23.176 9.86803C23.6743 9.17168 24.3284 8.52832 25.0176 8.13047C27.1901 6.87631 29.4831 7.0478 30.5603 8.86145C31.6389 10.6773 31.0487 12.6903 29.0076 14.071C27.9662 14.6989 26.9567 15.0787 25.839 15.2293M9.82383 9.86803C9.32552 9.17168 8.67142 8.52832 7.98223 8.13047C5.80972 6.87631 3.51668 7.0478 2.43948 8.86145C1.36094 10.6773 1.95108 12.6903 3.99215 14.071C5.03355 14.6989 6.04308 15.0787 7.16075 15.2293" stroke="black" stroke-width="0.912494" stroke-linecap="round" stroke-linejoin="round"/>
<path d="M25.9257 16.839C26.3005 11.9572 23.2974 8.5325 16.4999 8.64349C9.70229 8.75448 6.779 11.9885 7.07406 16.839C7.35572 21.4693 12.8359 24.8691 16.4636 24.8691C20.0914 24.8691 25.5707 21.4621 25.9257 16.839Z" fill="white" stroke="black" stroke-width="0.912494" stroke-linecap="round" stroke-linejoin="round"/>
<path d="M19.71 19.0363C19.71 19.7895 20.3196 20.4 21.0716 20.4C21.8236 20.4 22.4332 19.7895 22.4332 19.0363C22.4332 18.2831 21.8236 17.6725 21.0716 17.6725C20.3196 17.6725 19.71 18.2831 19.71 19.0363ZM10.5668 19.0363C10.5668 19.7964 11.182 20.4126 11.9409 20.4126C12.6998 20.4126 13.3151 19.7964 13.3151 19.0363C13.3151 18.2761 12.6998 17.6599 11.9409 17.6599C11.182 17.6599 10.5668 18.2761 10.5668 19.0363Z" fill="black"/>
<path d="M10.8859 23.1082L9.10833 25.462M22.1142 23.1082L23.8917 25.462M8.40761 20.7805L5.54773 21.948M24.4447 20.7805L27.3046 21.948" stroke="black" stroke-width="1.04285" stroke-linecap="round"/>
<path d="M16.5 21.2783C15.0053 21.2783 14.0516 22.3161 14.0838 23.5954C14.1187 24.9809 15.1419 25.9126 16.5 25.9126C17.8581 25.9126 18.9133 24.8373 18.9162 23.5954C18.9192 22.3157 17.9947 21.2783 16.5 21.2783Z" fill="white" stroke="black" stroke-width="0.912494" stroke-linecap="round" stroke-linejoin="round"/>
</g>
<defs>
<clipPath id="clip0_3143_6150">
<rect width="31" height="20.4173" fill="white" transform="translate(1 6.40771)"/>
</clipPath>
</defs></svg>
  <svg x="50" y="50" width="44" height="44" viewBox="0 0 33 32" overflow="visible"><title>warpcast</title><rect x="0.36377" width="31.9969" height="31.9969" rx="6" fill="#472A91"/>
<path d="M21.1397 10L19.5623 15.924L17.9798 10H14.338L12.7403 15.9676L11.1479 10H7L10.8543 23.0978H14.4328L16.1439 17.0157L17.855 23.0978H21.4412L25.2871 10H21.1397Z" fill="white"/></svg>
  <svg x="98" y="50" width="44" height="44" viewBox="0 0 33 32" overflow="visible"><title>telegram</title><rect x="0.36377" width="31.9969" height="31.9969" rx="6" fill="#2AB6F6"/>
<g clip-path="url(#clip0_3143_6150)">
<path d="M24.2917 8.50008L21.17 24.4384C21.17 24.4384 21.0359 25.1668 20.1325 25.1668C19.6525 25.1668 19.405 24.9384 19.405 24.9384L12.6434 19.3276L9.33504 17.6601L5.08921 16.5309C5.08921 16.5309 4.33337 16.3126 4.33337 15.6876C4.33337 15.1668 5.11087 14.9184 5.11087 14.9184L22.8742 7.86175C22.8742 7.86175 23.4167 7.66592 23.8125 7.66675C24.0559 7.66675 24.3334 7.77092 24.3334 8.08342C24.3334 8.29175 24.2917 8.50008 24.2917 8.50008Z" fill="white"/>
<path d="M15.1666 21.4207L12.3116 24.2324C12.3116 24.2324 12.1874 24.3282 12.0216 24.3324C11.9641 24.334 11.9024 24.3249 11.8391 24.2965L12.6424 19.3257L15.1666 21.4207Z" fill="#B0BEC5"/>
<path d="M20.9142 11.1632C20.7734 10.9799 20.5134 10.9466 20.33 11.0857L9.33337 17.6666C9.33337 17.6666 11.0884 22.5766 11.3559 23.4266C11.6242 24.2774 11.8392 24.2974 11.8392 24.2974L12.6425 19.3266L20.8359 11.7466C21.0192 11.6074 21.0534 11.3466 20.9142 11.1632Z" fill="#CFD8DC"/>
</g>
<defs>
<clipPath id="clip0_3143_6150">
<rect width="31" height="20.4173" fill="white" transform="translate(1 6.40771)"/>
</clipPath>
</defs></svg>
  <svg x="146" y="50" width="44" height="44" viewBox="0 0 33 32" overflow="visible"><title>nostr</title><rect x="0.36377" width="31.9969" height="31.9969" rx="6" fill="#995ADA"/>
<path d="M26.5499 10.5098C26.4948 9.97063 26.3171 9.48358 25.974 9.0578C25.6708 8.68102 25.2818 8.41146 24.9142 8.1082C24.7304 7.95811 24.2433 7.5507 24.1821 7.32096C24.1085 7.04221 24.2219 6.75733 24.4761 6.66543C24.859 6.53678 25.4992 6.53984 25.8699 6.56435C26.1854 6.58885 26.5101 6.47858 26.5224 6.34992C26.5346 6.22127 26.3478 6.03135 26.0996 5.97315C25.9036 5.9272 25.6034 5.85674 25.4227 5.73728C25.101 5.51979 24.7733 5.12157 24.326 5.03274C23.6889 4.90715 23.2447 5.14608 23.0364 5.69439C22.7056 6.47858 22.92 7.48331 23.6154 8.21848C23.9278 8.54931 24.2923 8.83418 24.6415 9.13132C24.8989 9.35187 25.1255 9.59386 25.343 9.86342C25.925 10.5894 25.3093 11.9219 25.1623 12.0751C24.6477 12.6081 24.2004 12.7061 23.3121 12.6693C22.4391 12.6326 20.1754 11.4624 18.9777 11.4257C16.0125 11.3338 13.954 12.703 13.2587 13.0583C12.2172 13.5913 10.7346 13.625 10.6886 13.6404C10.0178 13.6924 8.62709 13.7445 7.93787 13.9834C6.96683 14.253 6.44302 14.6972 6.08769 15.6896C5.97741 16.1185 5.95597 16.5075 6.11219 16.7434C6.45221 17.258 7.36811 17.6869 7.78471 17.9227C7.99913 18.0453 8.42185 17.8921 8.50456 17.8339C8.97017 17.5184 9.38064 17.2703 9.93202 17.1906C10.0484 17.1722 10.8265 17.0344 11.2186 17.3223C11.5034 17.5306 11.7485 17.6562 12.0701 17.8033C12.6583 18.0698 13.954 18.4067 13.9785 18.4128C14.1531 18.4588 14.3767 18.5476 14.3767 18.7038C14.3767 18.9244 12.3183 20.6459 12.2049 20.6888C11.6872 20.9002 11.387 21.2402 11.2921 21.7303C11.2614 21.8896 11.191 22.055 11.1022 22.1867C10.7683 22.6707 9.28874 24.7721 8.89665 25.3479C8.70979 25.6175 8.51681 25.7523 8.25031 25.7952C7.86741 25.8564 7.57947 25.8656 7.41712 26.1383C7.31603 26.3129 7.38036 26.6529 7.44775 26.8734C7.52433 27.1246 7.31603 27.4371 7.30072 27.4738C7.11693 27.8322 7.04035 28.1753 7.06791 28.5214C7.0771 28.6623 7.08629 28.9901 7.3191 28.9993C7.5519 29.0115 7.61317 28.8614 7.64073 28.8063C7.67443 28.7389 7.80308 28.4602 7.83984 28.3928C7.98994 28.114 8.56276 27.5136 8.62709 27.4432C8.83232 27.2165 11.8955 22.9985 11.8955 22.9985C12.064 22.7779 12.2386 22.5512 12.5235 22.441C12.9186 22.2878 13.1821 21.9723 13.2587 21.5557C13.277 21.4638 14.4993 20.5265 15.02 20.1313C15.2099 19.9873 16.3617 19.5248 16.3801 19.5309C16.3801 19.5401 15.3263 21.1268 14.9986 21.9692C14.9465 22.104 14.8607 22.5635 14.9557 22.7963C15.1027 23.1547 15.4182 23.3109 15.7766 23.2037C15.8869 23.17 15.9849 23.1149 16.0799 23.0628C16.1228 23.0383 16.1656 23.0168 16.2085 22.9954C16.2514 22.974 16.2912 22.9525 16.3341 22.9311C16.4321 22.879 16.5271 22.83 16.6221 22.7994C16.9743 22.683 17.3297 22.5727 17.685 22.4624L18.4049 22.2388C18.9072 22.0826 19.4096 21.9263 19.9119 21.7732C20.0222 21.7395 20.1294 21.6997 20.2673 21.7027C20.3439 21.7027 20.4266 21.7334 20.4541 21.8467C20.4541 21.8528 20.5123 22.1959 20.7237 22.3337C20.8309 22.4042 21.0607 22.4593 21.2322 22.4532C21.3823 22.4471 21.5722 22.49 21.6702 22.5757L21.7958 22.683C21.8877 22.7595 22.0011 22.8024 22.0776 22.8239C22.1573 22.8453 22.3043 22.8453 22.3901 22.7565C22.482 22.6584 22.4483 22.4992 22.436 22.4501C22.4177 22.3828 22.3809 22.3307 22.3533 22.2847L22.2767 22.1653C22.2032 22.0489 22.1328 21.9325 22.0562 21.8161C21.8448 21.4944 21.6365 21.1759 21.4221 20.8573C21.1985 20.5265 20.8524 20.3947 20.399 20.4652C20.2244 20.4928 16.3923 21.6813 16.3648 21.6874C16.57 21.3106 17.7983 19.6136 18.1414 19.3992C18.3957 19.2491 18.5029 19.1051 18.9654 19.0255C19.8691 18.8723 21.8295 18.419 22.3166 18.0667C23.2631 17.3805 23.3397 15.8214 23.3244 15.5089C23.306 15.1965 23.4071 14.982 23.6797 14.8381C23.8145 14.7676 25.2726 13.962 25.9863 12.7735C26.4151 12.0781 26.6357 11.3338 26.5499 10.5098Z" fill="white"/></svg>
  <svg x="194" y="50" width="44" height="44" viewBox="0 0 33 32" overflow="visible"><title>vk</title><rect x="0.36377" width="31.9969" height="31.9969" rx="6" fill="#0077FF"/>
<path fill-rule="evenodd" clip-rule="evenodd" d="M26.6669 9.94802C26.8282 9.40151 26.6669 9 25.8994 9H23.3614C22.716 9 22.4186 9.34691 22.2572 9.72933C22.2572 9.72933 20.9665 12.926 19.1382 15.0025C18.5467 15.6036 18.2777 15.7949 17.9551 15.7949C17.7937 15.7949 17.5518 15.6036 17.5518 15.0572V9.94795C17.5518 9.29231 17.3729 9 16.8351 9H12.8468C12.4435 9 12.201 9.30432 12.201 9.59279C12.201 10.2144 13.1152 10.3578 13.2094 12.1064V15.9042C13.2094 16.7368 13.0614 16.8878 12.7387 16.8878C11.8784 16.8878 9.78536 13.6768 8.54413 10.0026C8.30084 9.28847 8.05683 9 7.40819 9H4.87018C4.14503 9 4 9.34691 4 9.72933C4 10.4124 4.86046 13.8004 8.00636 18.2812C10.1036 21.3414 13.0585 23 15.7474 23C17.3607 23 17.5602 22.6316 17.5602 21.997V19.6842C17.5602 18.9474 17.7131 18.8003 18.224 18.8003C18.6003 18.8003 19.2457 18.9916 20.7515 20.467C22.4724 22.2156 22.7561 23 23.724 23H26.262C26.9871 23 27.3497 22.6316 27.1406 21.9045C26.9116 21.1799 26.0901 20.1285 24.9999 18.8823C24.4083 18.1719 23.521 17.4069 23.2521 17.0244C22.8757 16.5326 22.9832 16.314 23.2521 15.8769C23.2521 15.8769 26.3443 11.4507 26.6669 9.94802Z" fill="white"/></svg>
  <svg x="242" y="50" width="44" height="44" viewBox="0 0 33 32" overflow="visible"><title>devto</title><g clip-path="url(#clip0_3002_11362)">
<rect x="0.36377" width="31.9969" height="31.9969" rx="6" fill="white"/>
<path d="M8.2559 12.0559H7.09777V18.9934H8.25656C8.93092 18.9572 9.40924 18.4177 9.41668 17.8373V13.2121C9.37046 12.5238 8.89898 12.0651 8.2559 12.0559ZM11.2927 17.8499C11.2927 19.099 10.5217 20.9916 8.08125 20.9876H5V10H8.14633C10.4998 10 11.2913 11.8899 11.292 13.1397L11.2927 17.8499ZM17.9784 11.9623H14.4403V14.5136H16.6032V16.4773H14.4403V19.0279H17.9791V20.9916H13.85C13.1089 21.0108 12.4926 20.4251 12.474 19.684V11.3759C12.4561 10.6355 13.0425 10.0206 13.7829 10.002H17.9791L17.9784 11.9623ZM24.8608 19.6183C23.9842 21.6603 22.4137 21.2539 21.7105 19.6183L19.1518 10.0027H21.3147L23.2876 17.5544L25.2512 10.0027H27.4148L24.8608 19.6183Z" fill="black"/>
</g>
<defs>
<clipPath id="clip0_3002_11362">
<rect x="0.36377" width="31.9969" height="31.9969" rx="6" fill="white"/>
</clipPath>
</defs></svg>
  <svg x="290" y="50" width="44" height="44" viewBox="0 0 33 32" overflow="visible"><title>medium</title><rect x="0.36377" width="31.9969" height="31.9969" rx="6" fill="white"/>
<path d="M25.4112 23.3913L27 24.9252V24.9761H18.9412V24.9252L20.5589 23.3913C20.7315 23.2492 20.8142 23.0238 20.7745 22.8023V12.9963C20.7745 12.5818 20.7745 12.0217 20.8467 11.5427L15.4106 25.1723H15.346L9.717 12.6327L9.47977 12.0874V20.3095C9.41232 20.8595 9.50471 21.4172 9.74588 21.916L12.0106 24.9256V24.9764H6V24.9256L8.26472 21.9088C8.50425 21.4127 8.59284 20.8575 8.5305 20.3095V11.2224C8.56725 10.7749 8.4337 10.3299 8.15644 9.97948L6.55355 7.8785V7.82764H12.3049L17.1218 18.4484L21.3635 7.82764H26.9928V7.8785L25.4112 9.65956C25.2216 9.79967 25.1271 10.0362 25.1668 10.2699V22.8023C25.146 22.9136 25.1581 23.0285 25.2015 23.1331C25.2449 23.2376 25.3178 23.3273 25.4112 23.3913Z" fill="#1C1B1A"/></svg>
  <svg x="338" y="50" width="44" height="44" viewBox="0 0 33 32" overflow="visible"><title>hashnode</title><rect x="0.36377" width="31.9969" height="31.9969" rx="6" fill="white"/>
<g clip-path="url(#clip0_3002_11362)">
<path d="M20.9466 16.5001C20.9466 14.0443 18.9558 12.0535 16.5001 12.0535C14.0443 12.0535 12.0535 14.0443 12.0535 16.5001C12.0535 18.9558 14.0443 20.9466 16.5001 20.9466C18.9558 20.9466 20.9466 18.9558 20.9466 16.5001Z" fill="white"/>
<path fill-rule="evenodd" clip-rule="evenodd" d="M4.85537 12.0214C2.38187 14.495 2.38187 18.5054 4.85537 20.979L12.0214 28.1451C14.495 30.6186 18.5054 30.6186 20.979 28.1451L28.1451 20.979C30.6186 18.5054 30.6186 14.495 28.1451 12.0214L20.979 4.85537C18.5054 2.38187 14.495 2.38187 12.0214 4.85537L4.85537 12.0214ZM19.6353 19.6353C21.3669 17.9039 21.3669 15.0965 19.6353 13.3651C17.9039 11.6336 15.0965 11.6336 13.3651 13.3651C11.6336 15.0965 11.6336 17.9039 13.3651 19.6353C15.0965 21.3669 17.9039 21.3669 19.6353 19.6353Z" fill="#2962FF"/>
</g>
<defs>
<clipPath id="clip0_3002_11362">
<rect width="27" height="27" fill="white" transform="translate(3 3)"/>
</clipPath>
</defs></svg>
  <svg x="386" y="50" width="44" height="44" viewBox="0 0 33 32" overflow="visible"><title>wordpress</title><rect x="0.36377" width="31.9969" height="31.9969" rx="6" fill="white"/>
<g clip-path="url(#clip0_3002_11362)">
<path d="M3.99011 15.9996C3.99011 20.7534 6.75286 24.8617 10.7591 26.8085L5.02994 11.1118C4.36354 12.6055 3.99011 14.2584 3.99011 15.9996Z" fill="#21759B"/>
<path d="M24.1084 15.3936C24.1084 13.9093 23.5753 12.8813 23.118 12.0813C22.5092 11.092 21.9385 10.2542 21.9385 9.26489C21.9385 8.16086 22.7759 7.13317 23.9553 7.13317C24.0086 7.13317 24.0591 7.1398 24.111 7.14277C21.9742 5.18519 19.1273 3.98999 16.0005 3.98999C11.8046 3.98999 8.11311 6.14273 5.96558 9.40337C6.24736 9.41183 6.51292 9.41777 6.73848 9.41777C7.99473 9.41777 9.93933 9.26534 9.93933 9.26534C10.5868 9.22718 10.6631 10.1781 10.0163 10.2546C10.0163 10.2546 9.36571 10.3312 8.64171 10.3691L13.0154 23.3781L15.6438 15.4955L13.7725 10.3687C13.1258 10.3307 12.5131 10.2542 12.5131 10.2542C11.8659 10.2162 11.9417 9.22672 12.589 9.26489C12.589 9.26489 14.5724 9.41731 15.7525 9.41731C17.0086 9.41731 18.9534 9.26489 18.9534 9.26489C19.6013 9.22672 19.6774 10.1776 19.0304 10.2542C19.0304 10.2542 18.3784 10.3307 17.6558 10.3687L21.9961 23.2792L23.1941 19.276C23.7133 17.6149 24.1084 16.4217 24.1084 15.3936Z" fill="#21759B"/>
<path d="M16.2112 17.0503L12.6077 27.5212C13.6836 27.8375 14.8215 28.0105 16.0005 28.0105C17.3991 28.0105 18.7404 27.7687 19.9889 27.3297C19.9566 27.2783 19.9274 27.2237 19.9034 27.1643L16.2112 17.0503Z" fill="#21759B"/>
<path d="M26.5391 10.2375C26.5907 10.6201 26.62 11.0308 26.62 11.4725C26.62 12.6913 26.3923 14.0613 25.7067 15.7743L22.0381 26.381C25.6087 24.2989 28.0104 20.4306 28.0104 15.9999C28.0106 13.9118 27.4772 11.9483 26.5391 10.2375Z" fill="#21759B"/>
<path d="M16.0005 2C8.2808 2 2 8.28019 2 15.9997C2 23.72 8.2808 30 16.0005 30C23.7199 30 30.0016 23.72 30.0016 15.9997C30.0014 8.28019 23.7199 2 16.0005 2ZM16.0005 29.3583C8.6348 29.3583 2.64195 23.3656 2.64195 15.9997C2.64195 8.63418 8.63457 2.64194 16.0005 2.64194C23.3659 2.64194 29.3583 8.63418 29.3583 15.9997C29.3583 23.3656 23.3659 29.3583 16.0005 29.3583Z" fill="#21759B"/>
</g>
<defs>
<clipPath id="clip0_3002_11362">
<rect width="28" height="28" fill="white" transform="translate(2 2)"/>
</clipPath>
</defs></svg>
  <svg x="434" y="50" width="44" height="44" viewBox="0 0 32 32" overflow="visible"><title>whop</title><rect width="32" height="32" rx="6" fill="white"/>
<g clip-path="url(#clip0_4004_9850)">
<mask id="mask0_4004_9850" style="mask-type:luminance" maskUnits="userSpaceOnUse" x="4" y="10" width="24" height="12">
<path d="M27.5 10H4.5V21.9931H27.5V10Z" fill="white"/>
</mask>
<g mask="url(#mask0_4004_9850)">
<path d="M8.15426 10C6.64363 10 5.60228 10.6756 4.81422 11.4395C4.81422 11.4395 4.49602 11.7468 4.50004 11.7562L7.80963 15.1293L11.1186 11.7562C10.492 10.8769 9.3105 10 8.15426 10Z" fill="#FA4616"/>
<path d="M16.3264 10C14.8158 10 13.7744 10.6756 12.9863 11.4395C12.9863 11.4395 12.6957 11.7386 12.6825 11.7562L8.59177 15.926L11.8962 19.2938L19.2908 11.7562C18.6641 10.8769 17.4832 10 16.3264 10Z" fill="#FA4616"/>
<path d="M24.521 10C23.0103 10 21.969 10.6756 21.181 11.4395C21.181 11.4395 20.8782 11.741 20.8668 11.7562L12.6835 20.0976L13.5497 20.9804C14.8898 22.3461 17.0833 22.3461 18.4234 20.9804L27.475 11.7562H27.4854C26.8587 10.8769 25.6778 10 24.521 10Z" fill="#FA4616"/>
</g>
</g>
<defs>
<clipPath id="clip0_4004_9850">
<rect width="23" height="12" fill="white" transform="translate(4.5 10)"/>
</clipPath>
</defs></svg>
  <svg x="482" y="50" width="44" height="44" viewBox="0 0 32 32" overflow="visible"><title>kick</title><rect width="32" height="32" rx="6" fill="black"/>
<path fill-rule="evenodd" clip-rule="evenodd" d="M4.8837 3.01538H13.2244V8.77888H16V5.89713H18.7756V3.01538H27.1163V11.6774H24.3407V14.5591H21.5652V17.4408H24.3407V20.3226H27.1163V28.9846H18.7756V26.1028H16V23.2211H13.2244V28.9846H4.8837V3.01538Z" fill="#53FC18"/></svg>
  <svg x="530" y="50" width="44" height="44" viewBox="0 0 32 32" overflow="visible"><title>mewe</title><rect width="32" height="32" rx="6" fill="black"/>
<path d="M26.4378 12.6837L26.5335 12.3265L26.6272 11.9694L26.9469 11H29.5L27.3716 19.6224C26.6913 21.1102 24.6403 21.3908 23.5751 20.0112L21.0659 14.3643C20.3673 15.602 18.7206 20.2184 17.8081 20.6612C13.8283 21.7541 14.7245 17.5235 13.8355 15.0724C12.5544 17.0235 11.978 22.5969 8.41977 20.4031C7.43298 18.8704 6.81483 16.7949 6.02152 15.0878L4.995 21H2.5V20.5714L3.73019 12.8878C4.11106 11.3092 6.15289 10.7388 7.43909 11.9704L9.88521 17.6398L12.3211 12.1051C13.4332 10.7041 15.3569 11.0429 16.1085 12.4969L16.9099 17.2378C16.9313 17.1429 19.2909 11.9714 19.3296 11.9184C20.2216 10.6929 22.2054 10.8265 22.9264 11.9694C22.9407 11.9918 25.2982 17.3388 25.2982 17.3388C25.4978 15.9806 26.0538 14.1112 26.4378 12.6837Z" fill="#6CD0A6"/></svg>
  <svg x="578" y="50" width="44" height="44" viewBox="0 0 32 32" overflow="visible"><title>twitch</title><rect width="32" height="32" rx="6" fill="#6441A4"/>
<path d="M6.98553 5L5.5 8.77914V24.1656H10.7669V27H13.7379L16.5064 24.1656H20.7604L26.5 18.4294V5H6.98553ZM24.5418 17.4847L21.3006 20.7239H16.0338L13.1977 23.5583V20.7239H8.80868V6.95706H24.5418V17.4847ZM21.3006 10.7362V16.4724H19.2749V10.7362H21.3006ZM16.0338 10.7362V16.4724H14.0756V10.7362H16.0338Z" fill="white"/></svg>
  <svg x="626" y="50" width="44" height="44" viewBox="0 0 32 32" overflow="visible"><title>listmonk</title><rect width="32" height="32" rx="6" fill="white"/>
<path d="M16 25C20.9706 25 25 20.9706 25 16C25 11.0294 20.9706 7 16 7C11.0294 7 7 11.0294 7 16C7 20.9706 11.0294 25 16 25Z" stroke="#0055D4" stroke-width="6.5764" stroke-miterlimit="15.1181"/></svg>
  <svg x="674" y="50" width="44" height="44" viewBox="0 0 32 32" overflow="visible"><title>skool</title><rect width="32" height="32" rx="6" fill="#F5F1F5"/>
<path d="M12.9423 15.0265C12.8545 15.1619 12.7627 15.2614 12.6669 15.3251C12.5791 15.3809 12.4554 15.4087 12.2958 15.4087C12.1362 15.4087 11.9725 15.3689 11.8049 15.2893C11.6373 15.2097 11.4497 15.1261 11.2422 15.0385C11.0347 14.9429 10.7952 14.8553 10.5238 14.7757C10.2604 14.6961 9.95311 14.6563 9.60191 14.6563C9.06712 14.6563 8.65206 14.7677 8.35674 14.9907C8.06141 15.2057 7.91374 15.4924 7.91374 15.8507C7.91374 16.0975 7.99755 16.3046 8.16517 16.4718C8.33279 16.639 8.55229 16.7863 8.82367 16.9137C9.10304 17.0332 9.41832 17.1486 9.76953 17.2601C10.1207 17.3636 10.4799 17.4791 10.8471 17.6065C11.2222 17.7339 11.5854 17.8812 11.9366 18.0484C12.2878 18.2157 12.5991 18.4267 12.8705 18.6815C13.1498 18.9283 13.3733 19.2309 13.541 19.5893C13.7086 19.9396 13.7924 20.3656 13.7924 20.8673C13.7924 21.4645 13.6806 22.0179 13.4571 22.5276C13.2416 23.0292 12.9224 23.4632 12.4993 23.8295C12.0763 24.1958 11.5495 24.4824 10.9189 24.6895C10.2883 24.8965 9.562 25 8.73987 25C8.31683 25 7.89778 24.9602 7.48272 24.8806C7.06766 24.8089 6.67256 24.7054 6.29741 24.57C5.92227 24.4267 5.57106 24.2635 5.24381 24.0803C4.91655 23.8972 4.63319 23.6981 4.39374 23.4831L5.16 22.2528C5.2478 22.1095 5.35555 21.998 5.48326 21.9184C5.61895 21.8388 5.79056 21.7989 5.99809 21.7989C6.19764 21.7989 6.38122 21.8507 6.54884 21.9542C6.71646 22.0498 6.90404 22.1573 7.11156 22.2767C7.31909 22.3882 7.56254 22.4957 7.8419 22.5992C8.12925 22.6948 8.48445 22.7425 8.90748 22.7425C9.22676 22.7425 9.50213 22.7067 9.73361 22.6351C9.96508 22.5634 10.1527 22.4678 10.2963 22.3484C10.44 22.221 10.5438 22.0816 10.6076 21.9303C10.6795 21.7711 10.7154 21.6078 10.7154 21.4406C10.7154 21.1699 10.6276 20.9509 10.452 20.7837C10.2844 20.6085 10.0609 20.4572 9.7815 20.3298C9.51012 20.2024 9.19483 20.0869 8.83565 19.9834C8.47646 19.8799 8.1093 19.7644 7.73415 19.637C7.36698 19.5096 7.00381 19.3583 6.64462 19.1831C6.29342 19.008 5.97814 18.789 5.69877 18.5262C5.42739 18.2555 5.2039 17.925 5.0283 17.5348C4.86068 17.1446 4.77687 16.6709 4.77687 16.1135C4.77687 15.6038 4.87664 15.1221 5.07619 14.6682C5.27573 14.2063 5.57505 13.8002 5.97415 13.4499C6.37324 13.0995 6.86812 12.8208 7.45878 12.6138C8.05742 12.4067 8.74785 12.3032 9.53007 12.3032C10.4081 12.3032 11.2063 12.4466 11.9246 12.7332C12.643 13.0199 13.2337 13.3941 13.6966 13.856L12.9423 15.0265Z" fill="#263397"/>
<path d="M19.1654 7V17.1049H19.7161C19.9236 17.1049 20.0873 17.077 20.207 17.0213C20.3267 16.9576 20.4465 16.8461 20.5662 16.6868L23.296 13.0558C23.4317 12.8726 23.5833 12.7333 23.7509 12.6377C23.9265 12.5422 24.1461 12.4944 24.4095 12.4944H27.4266L23.8826 16.9854C23.6033 17.3597 23.28 17.6543 22.9129 17.8693C23.0964 17.9967 23.2561 18.144 23.3918 18.3113C23.5275 18.4785 23.6592 18.6656 23.7869 18.8726L27.6062 24.809H24.637C24.3815 24.809 24.162 24.7691 23.9784 24.6895C23.7948 24.6019 23.6432 24.4506 23.5235 24.2356L20.7458 19.7087C20.634 19.5176 20.5183 19.3942 20.3986 19.3385C20.2788 19.2827 20.0992 19.2549 19.8598 19.2549H19.1654V24.809H15.8609V7H19.1654Z" fill="#D3513E"/></svg>
</svg>
