<svg xmlns="http://www.w3.org/2000/svg" width="620" height="330" viewBox="0 0 620 330" role="img" aria-label="One schedule publishes a whole thread: opener at 9:00, each follow-up minutes later, in order">
  <defs><linearGradient id="bg" x1="0" y1="0" x2="1" y2="1"><stop offset="0" stop-color="#0f0e1d"/><stop offset="1" stop-color="#171331"/></linearGradient></defs>
  <rect x="1" y="1" width="618" height="328" rx="22" fill="url(#bg)" stroke="#2a2150" stroke-width="1.5"/>
  <svg viewBox="0 0 64 64" width="22" height="22" x="574" y="22">
<rect x="0.338867" y="0.925049" width="47.7769" height="47.7769" rx="11.9442" fill="black"/>
<path d="M26.5027 22.9855L35.3966 12.8693H33.2893L25.5632 21.6512L19.3969 12.8693H12.2831L21.6099 26.1503L12.2831 36.7577H14.3904L22.5444 27.4815L29.0578 36.7577H36.1715L26.5027 22.9855ZM23.6155 26.2668L22.669 24.9435L15.1503 14.4238H18.3876L24.4572 22.9167L25.3996 24.24L33.2883 35.279H30.0511L23.6155 26.2668Z" fill="white"/>


</svg>
  <line x1="60" y1="66" x2="60" y2="252" stroke="#3b3268" stroke-width="2.5"/>
  
  <circle cx="60" cy="50" r="16" fill="#7c3aed"/>
  <g transform="translate(51,41) scale(0.56)"><path d="M6.6 20.4 L8.2 10.6 L12.4 14.4 L16 8 L19.6 14.4 L23.8 10.6 L25.4 20.4 Z" fill="#ffffff"/><rect x="7" y="21.8" width="18" height="2.6" rx="1.3" fill="#ffffff"/></g>
  <text x="88" y="46" font-family="'Segoe UI',Helvetica,Arial,sans-serif" font-size="13.5" font-weight="700" fill="#ffffff">Your Cafe</text>
  <text x="164" y="46" font-family="'Segoe UI',Helvetica,Arial,sans-serif" font-size="12" fill="#8b84b5">@yourcafe</text>
  <text x="88" y="68" font-family="'Segoe UI',Helvetica,Arial,sans-serif" font-size="13.5" fill="#e8e3ff">We tried 47 latte recipes so you do not</text><text x="88" y="88" font-family="'Segoe UI',Helvetica,Arial,sans-serif" font-size="13.5" fill="#e8e3ff">have to. A thread:</text>
  <rect x="452" y="38" width="142" height="24" rx="12" fill="#2b1b5e"/>
  <text x="523" y="54" text-anchor="middle" font-family="'Segoe UI',Helvetica,Arial,sans-serif" font-size="11" font-weight="600" fill="#c4b5fd">Scheduled · 9:00 AM</text>
  
  <circle cx="60" cy="154" r="16" fill="#7c3aed"/>
  <g transform="translate(51,145) scale(0.56)"><path d="M6.6 20.4 L8.2 10.6 L12.4 14.4 L16 8 L19.6 14.4 L23.8 10.6 L25.4 20.4 Z" fill="#ffffff"/><rect x="7" y="21.8" width="18" height="2.6" rx="1.3" fill="#ffffff"/></g>
  <text x="88" y="150" font-family="'Segoe UI',Helvetica,Arial,sans-serif" font-size="13.5" font-weight="700" fill="#ffffff">Your Cafe</text>
  <text x="164" y="150" font-family="'Segoe UI',Helvetica,Arial,sans-serif" font-size="12" fill="#8b84b5">@yourcafe</text>
  <text x="88" y="172" font-family="'Segoe UI',Helvetica,Arial,sans-serif" font-size="13.5" fill="#e8e3ff">1. The oat flat white. Our sleeper hit.</text>
  <rect x="452" y="142" width="142" height="24" rx="12" fill="#2b1b5e"/>
  <text x="523" y="158" text-anchor="middle" font-family="'Segoe UI',Helvetica,Arial,sans-serif" font-size="11" font-weight="600" fill="#c4b5fd">Scheduled · 9:05 AM</text>
  
  <circle cx="60" cy="238" r="16" fill="#7c3aed"/>
  <g transform="translate(51,229) scale(0.56)"><path d="M6.6 20.4 L8.2 10.6 L12.4 14.4 L16 8 L19.6 14.4 L23.8 10.6 L25.4 20.4 Z" fill="#ffffff"/><rect x="7" y="21.8" width="18" height="2.6" rx="1.3" fill="#ffffff"/></g>
  <text x="88" y="234" font-family="'Segoe UI',Helvetica,Arial,sans-serif" font-size="13.5" font-weight="700" fill="#ffffff">Your Cafe</text>
  <text x="164" y="234" font-family="'Segoe UI',Helvetica,Arial,sans-serif" font-size="12" fill="#8b84b5">@yourcafe</text>
  <text x="88" y="256" font-family="'Segoe UI',Helvetica,Arial,sans-serif" font-size="13.5" fill="#e8e3ff">2. The honey cortado. Order it iced.</text><text x="88" y="276" font-family="'Segoe UI',Helvetica,Arial,sans-serif" font-size="13.5" fill="#e8e3ff">Trust us on this one.</text>
  <rect x="452" y="226" width="142" height="24" rx="12" fill="#2b1b5e"/>
  <text x="523" y="242" text-anchor="middle" font-family="'Segoe UI',Helvetica,Arial,sans-serif" font-size="11" font-weight="600" fill="#c4b5fd">Scheduled · 9:10 AM</text>
  <text x="310" y="310" text-anchor="middle" font-family="'Segoe UI',Helvetica,Arial,sans-serif" font-size="13" fill="#9c94c9">She posts the opener, then each reply, minutes apart. You schedule it once.</text>
</svg>
