<svg xmlns="http://www.w3.org/2000/svg" width="620" height="392" viewBox="0 0 620 392" role="img" aria-label="One schedule, a whole thread: the post and its follow-up comments go out minutes apart, in order">
  <defs><linearGradient id="bg" x1="0" y1="0" x2="1" y2="1"><stop offset="0" stop-color="#0f0e1d"/><stop offset="1" stop-color="#171331"/></linearGradient></defs>
  <rect x="1" y="1" width="618" height="390" rx="22" fill="url(#bg)" stroke="#2a2150" stroke-width="1.5"/>
  <!-- author row -->
  <circle cx="56" cy="56" r="18" fill="#7c3aed"/>
  <g transform="translate(46,46) scale(0.63)"><path d="M6.6 20.4 L8.2 10.6 L12.4 14.4 L16 8 L19.6 14.4 L23.8 10.6 L25.4 20.4 Z" fill="#ffffff"/><rect x="7" y="21.8" width="18" height="2.6" rx="1.3" fill="#ffffff"/></g>
  <text x="86" y="52" font-family="'Segoe UI',Helvetica,Arial,sans-serif" font-size="14.5" font-weight="700" fill="#ffffff">Your Cafe</text>
  <text x="86" y="70" font-family="'Segoe UI',Helvetica,Arial,sans-serif" font-size="12.5" fill="#8b84b5">@yourcafe</text>
  <svg viewBox="0 0 64 64" width="22" height="22" x="474" y="42">
<rect x="0.338867" y="0.925049" width="47.7769" height="47.7769" rx="11.9442" fill="black"/>
<path d="M26.5027 22.9855L35.3966 12.8693H33.2893L25.5632 21.6512L19.3969 12.8693H12.2831L21.6099 26.1503L12.2831 36.7577H14.3904L22.5444 27.4815L29.0578 36.7577H36.1715L26.5027 22.9855ZM23.6155 26.2668L22.669 24.9435L15.1503 14.4238H18.3876L24.4572 22.9167L25.3996 24.24L33.2883 35.279H30.0511L23.6155 26.2668Z" fill="white"/>


</svg>
  <!-- thread line -->
  <line x1="56" y1="80" x2="56" y2="356" stroke="#3b3268" stroke-width="2.5"/>
  <circle cx="56" cy="106" r="5" fill="#7c3aed"/>
  <circle cx="56" cy="204" r="5" fill="#5b21b6"/>
  <circle cx="56" cy="294" r="5" fill="#5b21b6"/>
  
  <rect x="96" y="84" width="400" height="96" rx="14" fill="#1b1633" stroke="#2a2150" stroke-width="1"/>
  <text x="118" y="118" font-family="'Segoe UI',Helvetica,Arial,sans-serif" font-size="13.5" fill="#e8e3ff">We tried 47 latte recipes so you</text><text x="118" y="140" font-family="'Segoe UI',Helvetica,Arial,sans-serif" font-size="13.5" fill="#e8e3ff">do not have to. A thread:</text>
  <rect x="508" y="112" width="86" height="24" rx="12" fill="#241d45"/>
  <text x="551" y="128" text-anchor="middle" font-family="'Segoe UI',Helvetica,Arial,sans-serif" font-size="11" fill="#a78bfa">9:00 AM</text>
  
  <rect x="96" y="182" width="400" height="74" rx="14" fill="#1b1633" stroke="#2a2150" stroke-width="1"/>
  <text x="118" y="216" font-family="'Segoe UI',Helvetica,Arial,sans-serif" font-size="13.5" fill="#c9c2ef">1. The oat flat white. Our sleeper hit.</text>
  <rect x="508" y="202" width="86" height="24" rx="12" fill="#241d45"/>
  <text x="551" y="218" text-anchor="middle" font-family="'Segoe UI',Helvetica,Arial,sans-serif" font-size="11" fill="#a78bfa">9:05 AM</text>
  
  <rect x="96" y="272" width="400" height="74" rx="14" fill="#1b1633" stroke="#2a2150" stroke-width="1"/>
  <text x="118" y="306" font-family="'Segoe UI',Helvetica,Arial,sans-serif" font-size="13.5" fill="#c9c2ef">2. The honey cortado. Order it iced.</text>
  <rect x="508" y="292" width="86" height="24" rx="12" fill="#241d45"/>
  <text x="551" y="308" text-anchor="middle" font-family="'Segoe UI',Helvetica,Arial,sans-serif" font-size="11" fill="#a78bfa">9:10 AM</text>
  <!-- footer -->
  <text x="310" y="374" text-anchor="middle" font-family="'Segoe UI',Helvetica,Arial,sans-serif" font-size="13" fill="#9c94c9">One schedule, the whole thread: each comment lands minutes after the last.</text>
</svg>
