<svg xmlns="http://www.w3.org/2000/svg" width="620" height="380" viewBox="0 0 620 380" role="img" aria-label="docker compose up: the PostQueen stack starts and is ready on localhost 4007">
  <defs>
    <linearGradient id="bg" x1="0" y1="0" x2="1" y2="1"><stop offset="0" stop-color="#0f0e1d"/><stop offset="1" stop-color="#171331"/></linearGradient>
  </defs>
  <rect x="1" y="1" width="618" height="378" rx="22" fill="url(#bg)" stroke="#2a2150" stroke-width="1.5"/>
  <rect x="1" y="1" width="618" height="52" rx="22" fill="#1b1633"/>
  <rect x="1" y="32" width="618" height="21" fill="#1b1633"/>
  <circle cx="30" cy="27" r="6.5" fill="#ff5f57"/>
  <circle cx="52" cy="27" r="6.5" fill="#febc2e"/>
  <circle cx="74" cy="27" r="6.5" fill="#28c840"/>
  <text x="310" y="33" text-anchor="middle" font-family="'Segoe UI',Helvetica,Arial,sans-serif" font-size="15" font-weight="600" fill="#cec7f5">Terminal</text>
  <text x="28" y="88" font-family="'SF Mono',SFMono-Regular,Menlo,Consolas,'Liberation Mono',monospace" font-size="14.5" fill="#c9c2ef"><tspan fill="#8b84b5">$</tspan> docker compose up -d</text>
  <text x="28" y="116" font-family="'SF Mono',SFMono-Regular,Menlo,Consolas,'Liberation Mono',monospace" font-size="14" fill="#8b84b5">[+] Running 7/7</text>
  <circle cx="52" cy="139" r="6.5" fill="#16a34a"/><path d="M49,139 L51.4,141.4 L55.4,136.6" stroke="#ffffff" stroke-width="1.6" fill="none" stroke-linecap="round" stroke-linejoin="round"/><text x="68" y="144" font-family="'SF Mono',SFMono-Regular,Menlo,Consolas,'Liberation Mono',monospace" font-size="14" fill="#c9c2ef">Network postqueen-network</text><text x="500" y="144" font-family="'SF Mono',SFMono-Regular,Menlo,Consolas,'Liberation Mono',monospace" font-size="14" fill="#4ade80">Created</text>
  <circle cx="52" cy="166" r="6.5" fill="#16a34a"/><path d="M49,166 L51.4,168.4 L55.4,163.6" stroke="#ffffff" stroke-width="1.6" fill="none" stroke-linecap="round" stroke-linejoin="round"/><text x="68" y="171" font-family="'SF Mono',SFMono-Regular,Menlo,Consolas,'Liberation Mono',monospace" font-size="14" fill="#c9c2ef">Container postqueen-postgres</text><text x="500" y="171" font-family="'SF Mono',SFMono-Regular,Menlo,Consolas,'Liberation Mono',monospace" font-size="14" fill="#4ade80">Healthy</text>
  <circle cx="52" cy="193" r="6.5" fill="#16a34a"/><path d="M49,193 L51.4,195.4 L55.4,190.6" stroke="#ffffff" stroke-width="1.6" fill="none" stroke-linecap="round" stroke-linejoin="round"/><text x="68" y="198" font-family="'SF Mono',SFMono-Regular,Menlo,Consolas,'Liberation Mono',monospace" font-size="14" fill="#c9c2ef">Container postqueen-redis</text><text x="500" y="198" font-family="'SF Mono',SFMono-Regular,Menlo,Consolas,'Liberation Mono',monospace" font-size="14" fill="#4ade80">Healthy</text>
  <circle cx="52" cy="220" r="6.5" fill="#16a34a"/><path d="M49,220 L51.4,222.4 L55.4,217.6" stroke="#ffffff" stroke-width="1.6" fill="none" stroke-linecap="round" stroke-linejoin="round"/><text x="68" y="225" font-family="'SF Mono',SFMono-Regular,Menlo,Consolas,'Liberation Mono',monospace" font-size="14" fill="#c9c2ef">Container temporal-postgresql</text><text x="500" y="225" font-family="'SF Mono',SFMono-Regular,Menlo,Consolas,'Liberation Mono',monospace" font-size="14" fill="#4ade80">Healthy</text>
  <circle cx="52" cy="247" r="6.5" fill="#16a34a"/><path d="M49,247 L51.4,249.4 L55.4,244.6" stroke="#ffffff" stroke-width="1.6" fill="none" stroke-linecap="round" stroke-linejoin="round"/><text x="68" y="252" font-family="'SF Mono',SFMono-Regular,Menlo,Consolas,'Liberation Mono',monospace" font-size="14" fill="#c9c2ef">Container temporal</text><text x="500" y="252" font-family="'SF Mono',SFMono-Regular,Menlo,Consolas,'Liberation Mono',monospace" font-size="14" fill="#4ade80">Started</text>
  <circle cx="52" cy="274" r="6.5" fill="#16a34a"/><path d="M49,274 L51.4,276.4 L55.4,271.6" stroke="#ffffff" stroke-width="1.6" fill="none" stroke-linecap="round" stroke-linejoin="round"/><text x="68" y="279" font-family="'SF Mono',SFMono-Regular,Menlo,Consolas,'Liberation Mono',monospace" font-size="14" fill="#c9c2ef">Container temporal-ui</text><text x="500" y="279" font-family="'SF Mono',SFMono-Regular,Menlo,Consolas,'Liberation Mono',monospace" font-size="14" fill="#4ade80">Started</text>
  <circle cx="52" cy="301" r="6.5" fill="#16a34a"/><path d="M49,301 L51.4,303.4 L55.4,298.6" stroke="#ffffff" stroke-width="1.6" fill="none" stroke-linecap="round" stroke-linejoin="round"/><text x="68" y="306" font-family="'SF Mono',SFMono-Regular,Menlo,Consolas,'Liberation Mono',monospace" font-size="14" fill="#c9c2ef">Container postqueen</text><text x="500" y="306" font-family="'SF Mono',SFMono-Regular,Menlo,Consolas,'Liberation Mono',monospace" font-size="14" fill="#4ade80">Started</text>
  <text x="28" y="356" font-family="'SF Mono',SFMono-Regular,Menlo,Consolas,'Liberation Mono',monospace" font-size="15" fill="#e8e3ff">PostQueen is up <tspan fill="#a78bfa">→</tspan> open <tspan fill="#93c5fd">http://localhost:4007</tspan></text>
</svg>
