<svg xmlns="http://www.w3.org/2000/svg" width="934" height="442" viewBox="0 0 934 442" role="img" aria-label="PostQueen features">
  <defs><linearGradient id="f0" x1="0" y1="0" x2="1" y2="1"><stop offset="0" stop-color="#7c3aed"/><stop offset="1" stop-color="#a855f7"/></linearGradient><linearGradient id="f1" x1="0" y1="0" x2="1" y2="1"><stop offset="0" stop-color="#6d28d9"/><stop offset="1" stop-color="#8b5cf6"/></linearGradient><linearGradient id="f2" x1="0" y1="0" x2="1" y2="1"><stop offset="0" stop-color="#db2777"/><stop offset="1" stop-color="#ec4899"/></linearGradient><linearGradient id="f3" x1="0" y1="0" x2="1" y2="1"><stop offset="0" stop-color="#4f46e5"/><stop offset="1" stop-color="#6366f1"/></linearGradient><linearGradient id="f4" x1="0" y1="0" x2="1" y2="1"><stop offset="0" stop-color="#0891b2"/><stop offset="1" stop-color="#06b6d4"/></linearGradient><linearGradient id="f5" x1="0" y1="0" x2="1" y2="1"><stop offset="0" stop-color="#2563eb"/><stop offset="1" stop-color="#3b82f6"/></linearGradient><linearGradient id="f6" x1="0" y1="0" x2="1" y2="1"><stop offset="0" stop-color="#9333ea"/><stop offset="1" stop-color="#c026d3"/></linearGradient><linearGradient id="f7" x1="0" y1="0" x2="1" y2="1"><stop offset="0" stop-color="#0d9488"/><stop offset="1" stop-color="#14b8a6"/></linearGradient></defs>
  <rect x="8" y="8" width="452" height="96" rx="16" fill="url(#f0)"/>
  <g transform="translate(54,56)"><rect x="-15" y="-13" width="30" height="26" rx="4" fill="none" stroke="#fff" stroke-width="2.6"/><line x1="-15" y1="-5" x2="15" y2="-5" stroke="#fff" stroke-width="2.6"/><line x1="-8" y1="-18" x2="-8" y2="-10" stroke="#fff" stroke-width="2.6" stroke-linecap="round"/><line x1="8" y1="-18" x2="8" y2="-10" stroke="#fff" stroke-width="2.6" stroke-linecap="round"/><circle cx="-7" cy="3" r="2" fill="#fff"/><circle cx="0" cy="3" r="2" fill="#fff"/><circle cx="7" cy="3" r="2" fill="#fff"/></g>
  <text x="98" y="48" font-family="'Segoe UI',Helvetica,Arial,sans-serif" font-size="21" font-weight="700" fill="#ffffff">Scheduling</text>
  <text x="98" y="74" font-family="'Segoe UI',Helvetica,Arial,sans-serif" font-size="14.5" font-weight="400" fill="#f1eaff">Plan every channel on one visual calendar.</text>
  <rect x="474" y="8" width="452" height="96" rx="16" fill="url(#f1)"/>
  <g transform="translate(520,56)"><path d="M0,-16 C1.6,-6 6,-1.6 16,0 C6,1.6 1.6,6 0,16 C-1.6,6 -6,1.6 -16,0 C-6,-1.6 -1.6,-6 0,-16 Z" fill="#fff"/><path d="M11,-14 C11.4,-11 12.6,-9.8 15.5,-9.4 C12.6,-9 11.4,-7.8 11,-5 C10.6,-7.8 9.4,-9 6.5,-9.4 C9.4,-9.8 10.6,-11 11,-14 Z" fill="#fff" opacity="0.85"/></g>
  <text x="564" y="48" font-family="'Segoe UI',Helvetica,Arial,sans-serif" font-size="21" font-weight="700" fill="#ffffff">AI Assistant</text>
  <text x="564" y="74" font-family="'Segoe UI',Helvetica,Arial,sans-serif" font-size="14.5" font-weight="400" fill="#f1eaff">The best hook and caption for your topic.</text>
  <rect x="8" y="118" width="452" height="96" rx="16" fill="url(#f2)"/>
  <g transform="translate(54,166)"><rect x="-15" y="-12" width="30" height="24" rx="4" fill="none" stroke="#fff" stroke-width="2.6"/><circle cx="-6" cy="-3" r="3.2" fill="#fff"/><path d="M-15,9 L-5,-1 L2,5 L7,1 L15,9 Z" fill="#fff"/></g>
  <text x="98" y="158" font-family="'Segoe UI',Helvetica,Arial,sans-serif" font-size="21" font-weight="700" fill="#ffffff">AI Design</text>
  <text x="98" y="184" font-family="'Segoe UI',Helvetica,Arial,sans-serif" font-size="14.5" font-weight="400" fill="#f1eaff">On-brand images, with matching colors.</text>
  <rect x="474" y="118" width="452" height="96" rx="16" fill="url(#f3)"/>
  <g transform="translate(520,166)"><circle cx="0" cy="0" r="15" fill="none" stroke="#fff" stroke-width="2.6"/><path d="M-5,-7.5 L8,0 L-5,7.5 Z" fill="#fff"/></g>
  <text x="564" y="158" font-family="'Segoe UI',Helvetica,Arial,sans-serif" font-size="21" font-weight="700" fill="#ffffff">AI Video</text>
  <text x="564" y="184" font-family="'Segoe UI',Helvetica,Arial,sans-serif" font-size="14.5" font-weight="400" fill="#f1eaff">Short vertical videos, with AI voiceover.</text>
  <rect x="8" y="228" width="452" height="96" rx="16" fill="url(#f4)"/>
  <g transform="translate(54,276)"><path d="M3,-16 L-8,4 L-0.5,4 L-3,16 L9,-4 L1.5,-4 Z" fill="#fff"/></g>
  <text x="98" y="268" font-family="'Segoe UI',Helvetica,Arial,sans-serif" font-size="21" font-weight="700" fill="#ffffff">Auto Actions</text>
  <text x="98" y="294" font-family="'Segoe UI',Helvetica,Arial,sans-serif" font-size="14.5" font-weight="400" fill="#f1eaff">Auto-repost, like and comment on milestones.</text>
  <rect x="474" y="228" width="452" height="96" rx="16" fill="url(#f5)"/>
  <g transform="translate(520,276)"><circle cx="-6" cy="-6" r="5" fill="#fff"/><circle cx="8" cy="-4" r="4" fill="#fff"/><path d="M-15,13 C-15,3.5 -8.5,1.5 -6,1.5 C-3.5,1.5 3,3.5 3,13 Z" fill="#fff"/><path d="M4,13 C4.5,5.5 9.5,3.5 11.5,3.5 C13.5,3.5 16,6.5 16,13 Z" fill="#fff" opacity="0.9"/></g>
  <text x="564" y="268" font-family="'Segoe UI',Helvetica,Arial,sans-serif" font-size="21" font-weight="700" fill="#ffffff">Teamwork</text>
  <text x="564" y="294" font-family="'Segoe UI',Helvetica,Arial,sans-serif" font-size="14.5" font-weight="400" fill="#f1eaff">Roles, comments and multi-brand workspaces.</text>
  <rect x="8" y="338" width="452" height="96" rx="16" fill="url(#f6)"/>
  <g transform="translate(54,386)"><rect x="-14" y="0" width="7" height="13" rx="1.6" fill="#fff"/><rect x="-3.5" y="-9" width="7" height="22" rx="1.6" fill="#fff"/><rect x="7" y="-4" width="7" height="17" rx="1.6" fill="#fff"/></g>
  <text x="98" y="378" font-family="'Segoe UI',Helvetica,Arial,sans-serif" font-size="21" font-weight="700" fill="#ffffff">Analytics</text>
  <text x="98" y="404" font-family="'Segoe UI',Helvetica,Arial,sans-serif" font-size="14.5" font-weight="400" fill="#f1eaff">Track performance on the major networks.</text>
  <rect x="474" y="338" width="452" height="96" rx="16" fill="url(#f7)"/>
  <g transform="translate(520,386)"><path d="M-13,-2 A13,13 0 0 1 10,-7" fill="none" stroke="#fff" stroke-width="2.6" stroke-linecap="round"/><path d="M10,-7 L4.5,-8.5 M10,-7 L8.5,-1.5" fill="none" stroke="#fff" stroke-width="2.6" stroke-linecap="round"/><path d="M13,2 A13,13 0 0 1 -10,7" fill="none" stroke="#fff" stroke-width="2.6" stroke-linecap="round"/><path d="M-10,7 L-4.5,8.5 M-10,7 L-8.5,1.5" fill="none" stroke="#fff" stroke-width="2.6" stroke-linecap="round"/></g>
  <text x="564" y="378" font-family="'Segoe UI',Helvetica,Arial,sans-serif" font-size="21" font-weight="700" fill="#ffffff">Cross-posting</text>
  <text x="564" y="404" font-family="'Segoe UI',Helvetica,Arial,sans-serif" font-size="14.5" font-weight="400" fill="#f1eaff">Write once, tailored per channel.</text>
</svg>
