<svg xmlns="http://www.w3.org/2000/svg" width="904" height="224" viewBox="0 0 904 224" role="img" aria-label="PostQueen features">
  <defs><linearGradient id="g0" x1="0" y1="0" x2="1" y2="1"><stop offset="0" stop-color="#7c3aed"/><stop offset="1" stop-color="#a855f7"/></linearGradient><linearGradient id="g1" x1="0" y1="0" x2="1" y2="1"><stop offset="0" stop-color="#6d28d9"/><stop offset="1" stop-color="#8b5cf6"/></linearGradient><linearGradient id="g2" x1="0" y1="0" x2="1" y2="1"><stop offset="0" stop-color="#db2777"/><stop offset="1" stop-color="#ec4899"/></linearGradient><linearGradient id="g3" x1="0" y1="0" x2="1" y2="1"><stop offset="0" stop-color="#4f46e5"/><stop offset="1" stop-color="#6366f1"/></linearGradient><linearGradient id="g4" x1="0" y1="0" x2="1" y2="1"><stop offset="0" stop-color="#0891b2"/><stop offset="1" stop-color="#06b6d4"/></linearGradient><linearGradient id="g5" x1="0" y1="0" x2="1" y2="1"><stop offset="0" stop-color="#2563eb"/><stop offset="1" stop-color="#3b82f6"/></linearGradient><linearGradient id="g6" x1="0" y1="0" x2="1" y2="1"><stop offset="0" stop-color="#9333ea"/><stop offset="1" stop-color="#c026d3"/></linearGradient><linearGradient id="g7" x1="0" y1="0" x2="1" y2="1"><stop offset="0" stop-color="#0d9488"/><stop offset="1" stop-color="#14b8a6"/></linearGradient></defs>
  <rect x="8" y="8" width="210" height="96" rx="16" fill="url(#g0)"/>
  <text x="113" y="63" text-anchor="middle" font-family="'Segoe UI',Helvetica,Arial,sans-serif" font-size="20" font-weight="700" fill="#ffffff">Scheduling</text>
  <rect x="234" y="8" width="210" height="96" rx="16" fill="url(#g1)"/>
  <text x="339" y="63" text-anchor="middle" font-family="'Segoe UI',Helvetica,Arial,sans-serif" font-size="20" font-weight="700" fill="#ffffff">AI Assistant</text>
  <rect x="460" y="8" width="210" height="96" rx="16" fill="url(#g2)"/>
  <text x="565" y="63" text-anchor="middle" font-family="'Segoe UI',Helvetica,Arial,sans-serif" font-size="20" font-weight="700" fill="#ffffff">AI Design</text>
  <rect x="686" y="8" width="210" height="96" rx="16" fill="url(#g3)"/>
  <text x="791" y="63" text-anchor="middle" font-family="'Segoe UI',Helvetica,Arial,sans-serif" font-size="20" font-weight="700" fill="#ffffff">AI Video</text>
  <rect x="8" y="120" width="210" height="96" rx="16" fill="url(#g4)"/>
  <text x="113" y="175" text-anchor="middle" font-family="'Segoe UI',Helvetica,Arial,sans-serif" font-size="20" font-weight="700" fill="#ffffff">Auto Actions</text>
  <rect x="234" y="120" width="210" height="96" rx="16" fill="url(#g5)"/>
  <text x="339" y="175" text-anchor="middle" font-family="'Segoe UI',Helvetica,Arial,sans-serif" font-size="20" font-weight="700" fill="#ffffff">Teamwork</text>
  <rect x="460" y="120" width="210" height="96" rx="16" fill="url(#g6)"/>
  <text x="565" y="175" text-anchor="middle" font-family="'Segoe UI',Helvetica,Arial,sans-serif" font-size="20" font-weight="700" fill="#ffffff">Analytics</text>
  <rect x="686" y="120" width="210" height="96" rx="16" fill="url(#g7)"/>
  <text x="791" y="175" text-anchor="middle" font-family="'Segoe UI',Helvetica,Arial,sans-serif" font-size="20" font-weight="700" fill="#ffffff">Cross-posting</text>
</svg>
