<svg xmlns="http://www.w3.org/2000/svg" width="620" height="280" viewBox="0 0 620 280" role="img" aria-label="n8n workflow: every Monday PostQueen Get Posts checks the next seven days and Slack alerts you if the queue is empty">
  <defs>
    <linearGradient id="bg" x1="0" y1="0" x2="1" y2="1"><stop offset="0" stop-color="#0f0e1d"/><stop offset="1" stop-color="#171331"/></linearGradient>
  </defs>
  <rect x="1" y="1" width="618" height="278" rx="22" fill="url(#bg)" stroke="#2a2150" stroke-width="1.5"/>
  <circle cx="34" cy="34" r="1" fill="#241d45"/><circle cx="64" cy="34" r="1" fill="#241d45"/><circle cx="94" cy="34" r="1" fill="#241d45"/><circle cx="124" cy="34" r="1" fill="#241d45"/><circle cx="154" cy="34" r="1" fill="#241d45"/><circle cx="184" cy="34" r="1" fill="#241d45"/><circle cx="214" cy="34" r="1" fill="#241d45"/><circle cx="244" cy="34" r="1" fill="#241d45"/><circle cx="274" cy="34" r="1" fill="#241d45"/><circle cx="304" cy="34" r="1" fill="#241d45"/><circle cx="334" cy="34" r="1" fill="#241d45"/><circle cx="364" cy="34" r="1" fill="#241d45"/><circle cx="394" cy="34" r="1" fill="#241d45"/><circle cx="424" cy="34" r="1" fill="#241d45"/><circle cx="454" cy="34" r="1" fill="#241d45"/><circle cx="484" cy="34" r="1" fill="#241d45"/><circle cx="514" cy="34" r="1" fill="#241d45"/><circle cx="544" cy="34" r="1" fill="#241d45"/><circle cx="574" cy="34" r="1" fill="#241d45"/><circle cx="604" cy="34" r="1" fill="#241d45"/>
  <circle cx="34" cy="60" r="1" fill="#241d45"/><circle cx="64" cy="60" r="1" fill="#241d45"/><circle cx="94" cy="60" r="1" fill="#241d45"/><circle cx="124" cy="60" r="1" fill="#241d45"/><circle cx="154" cy="60" r="1" fill="#241d45"/><circle cx="184" cy="60" r="1" fill="#241d45"/><circle cx="214" cy="60" r="1" fill="#241d45"/><circle cx="244" cy="60" r="1" fill="#241d45"/><circle cx="274" cy="60" r="1" fill="#241d45"/><circle cx="304" cy="60" r="1" fill="#241d45"/><circle cx="334" cy="60" r="1" fill="#241d45"/><circle cx="364" cy="60" r="1" fill="#241d45"/><circle cx="394" cy="60" r="1" fill="#241d45"/><circle cx="424" cy="60" r="1" fill="#241d45"/><circle cx="454" cy="60" r="1" fill="#241d45"/><circle cx="484" cy="60" r="1" fill="#241d45"/><circle cx="514" cy="60" r="1" fill="#241d45"/><circle cx="544" cy="60" r="1" fill="#241d45"/><circle cx="574" cy="60" r="1" fill="#241d45"/><circle cx="604" cy="60" r="1" fill="#241d45"/>
  <circle cx="34" cy="86" r="1" fill="#241d45"/><circle cx="64" cy="86" r="1" fill="#241d45"/><circle cx="94" cy="86" r="1" fill="#241d45"/><circle cx="124" cy="86" r="1" fill="#241d45"/><circle cx="154" cy="86" r="1" fill="#241d45"/><circle cx="184" cy="86" r="1" fill="#241d45"/><circle cx="214" cy="86" r="1" fill="#241d45"/><circle cx="244" cy="86" r="1" fill="#241d45"/><circle cx="274" cy="86" r="1" fill="#241d45"/><circle cx="304" cy="86" r="1" fill="#241d45"/><circle cx="334" cy="86" r="1" fill="#241d45"/><circle cx="364" cy="86" r="1" fill="#241d45"/><circle cx="394" cy="86" r="1" fill="#241d45"/><circle cx="424" cy="86" r="1" fill="#241d45"/><circle cx="454" cy="86" r="1" fill="#241d45"/><circle cx="484" cy="86" r="1" fill="#241d45"/><circle cx="514" cy="86" r="1" fill="#241d45"/><circle cx="544" cy="86" r="1" fill="#241d45"/><circle cx="574" cy="86" r="1" fill="#241d45"/><circle cx="604" cy="86" r="1" fill="#241d45"/>
  <circle cx="34" cy="112" r="1" fill="#241d45"/><circle cx="64" cy="112" r="1" fill="#241d45"/><circle cx="94" cy="112" r="1" fill="#241d45"/><circle cx="124" cy="112" r="1" fill="#241d45"/><circle cx="154" cy="112" r="1" fill="#241d45"/><circle cx="184" cy="112" r="1" fill="#241d45"/><circle cx="214" cy="112" r="1" fill="#241d45"/><circle cx="244" cy="112" r="1" fill="#241d45"/><circle cx="274" cy="112" r="1" fill="#241d45"/><circle cx="304" cy="112" r="1" fill="#241d45"/><circle cx="334" cy="112" r="1" fill="#241d45"/><circle cx="364" cy="112" r="1" fill="#241d45"/><circle cx="394" cy="112" r="1" fill="#241d45"/><circle cx="424" cy="112" r="1" fill="#241d45"/><circle cx="454" cy="112" r="1" fill="#241d45"/><circle cx="484" cy="112" r="1" fill="#241d45"/><circle cx="514" cy="112" r="1" fill="#241d45"/><circle cx="544" cy="112" r="1" fill="#241d45"/><circle cx="574" cy="112" r="1" fill="#241d45"/><circle cx="604" cy="112" r="1" fill="#241d45"/>
  <circle cx="34" cy="138" r="1" fill="#241d45"/><circle cx="64" cy="138" r="1" fill="#241d45"/><circle cx="94" cy="138" r="1" fill="#241d45"/><circle cx="124" cy="138" r="1" fill="#241d45"/><circle cx="154" cy="138" r="1" fill="#241d45"/><circle cx="184" cy="138" r="1" fill="#241d45"/><circle cx="214" cy="138" r="1" fill="#241d45"/><circle cx="244" cy="138" r="1" fill="#241d45"/><circle cx="274" cy="138" r="1" fill="#241d45"/><circle cx="304" cy="138" r="1" fill="#241d45"/><circle cx="334" cy="138" r="1" fill="#241d45"/><circle cx="364" cy="138" r="1" fill="#241d45"/><circle cx="394" cy="138" r="1" fill="#241d45"/><circle cx="424" cy="138" r="1" fill="#241d45"/><circle cx="454" cy="138" r="1" fill="#241d45"/><circle cx="484" cy="138" r="1" fill="#241d45"/><circle cx="514" cy="138" r="1" fill="#241d45"/><circle cx="544" cy="138" r="1" fill="#241d45"/><circle cx="574" cy="138" r="1" fill="#241d45"/><circle cx="604" cy="138" r="1" fill="#241d45"/>
  <circle cx="34" cy="164" r="1" fill="#241d45"/><circle cx="64" cy="164" r="1" fill="#241d45"/><circle cx="94" cy="164" r="1" fill="#241d45"/><circle cx="124" cy="164" r="1" fill="#241d45"/><circle cx="154" cy="164" r="1" fill="#241d45"/><circle cx="184" cy="164" r="1" fill="#241d45"/><circle cx="214" cy="164" r="1" fill="#241d45"/><circle cx="244" cy="164" r="1" fill="#241d45"/><circle cx="274" cy="164" r="1" fill="#241d45"/><circle cx="304" cy="164" r="1" fill="#241d45"/><circle cx="334" cy="164" r="1" fill="#241d45"/><circle cx="364" cy="164" r="1" fill="#241d45"/><circle cx="394" cy="164" r="1" fill="#241d45"/><circle cx="424" cy="164" r="1" fill="#241d45"/><circle cx="454" cy="164" r="1" fill="#241d45"/><circle cx="484" cy="164" r="1" fill="#241d45"/><circle cx="514" cy="164" r="1" fill="#241d45"/><circle cx="544" cy="164" r="1" fill="#241d45"/><circle cx="574" cy="164" r="1" fill="#241d45"/><circle cx="604" cy="164" r="1" fill="#241d45"/>
  <circle cx="34" cy="190" r="1" fill="#241d45"/><circle cx="64" cy="190" r="1" fill="#241d45"/><circle cx="94" cy="190" r="1" fill="#241d45"/><circle cx="124" cy="190" r="1" fill="#241d45"/><circle cx="154" cy="190" r="1" fill="#241d45"/><circle cx="184" cy="190" r="1" fill="#241d45"/><circle cx="214" cy="190" r="1" fill="#241d45"/><circle cx="244" cy="190" r="1" fill="#241d45"/><circle cx="274" cy="190" r="1" fill="#241d45"/><circle cx="304" cy="190" r="1" fill="#241d45"/><circle cx="334" cy="190" r="1" fill="#241d45"/><circle cx="364" cy="190" r="1" fill="#241d45"/><circle cx="394" cy="190" r="1" fill="#241d45"/><circle cx="424" cy="190" r="1" fill="#241d45"/><circle cx="454" cy="190" r="1" fill="#241d45"/><circle cx="484" cy="190" r="1" fill="#241d45"/><circle cx="514" cy="190" r="1" fill="#241d45"/><circle cx="544" cy="190" r="1" fill="#241d45"/><circle cx="574" cy="190" r="1" fill="#241d45"/><circle cx="604" cy="190" r="1" fill="#241d45"/>
  <circle cx="34" cy="216" r="1" fill="#241d45"/><circle cx="64" cy="216" r="1" fill="#241d45"/><circle cx="94" cy="216" r="1" fill="#241d45"/><circle cx="124" cy="216" r="1" fill="#241d45"/><circle cx="154" cy="216" r="1" fill="#241d45"/><circle cx="184" cy="216" r="1" fill="#241d45"/><circle cx="214" cy="216" r="1" fill="#241d45"/><circle cx="244" cy="216" r="1" fill="#241d45"/><circle cx="274" cy="216" r="1" fill="#241d45"/><circle cx="304" cy="216" r="1" fill="#241d45"/><circle cx="334" cy="216" r="1" fill="#241d45"/><circle cx="364" cy="216" r="1" fill="#241d45"/><circle cx="394" cy="216" r="1" fill="#241d45"/><circle cx="424" cy="216" r="1" fill="#241d45"/><circle cx="454" cy="216" r="1" fill="#241d45"/><circle cx="484" cy="216" r="1" fill="#241d45"/><circle cx="514" cy="216" r="1" fill="#241d45"/><circle cx="544" cy="216" r="1" fill="#241d45"/><circle cx="574" cy="216" r="1" fill="#241d45"/><circle cx="604" cy="216" r="1" fill="#241d45"/>
  <circle cx="34" cy="242" r="1" fill="#241d45"/><circle cx="64" cy="242" r="1" fill="#241d45"/><circle cx="94" cy="242" r="1" fill="#241d45"/><circle cx="124" cy="242" r="1" fill="#241d45"/><circle cx="154" cy="242" r="1" fill="#241d45"/><circle cx="184" cy="242" r="1" fill="#241d45"/><circle cx="214" cy="242" r="1" fill="#241d45"/><circle cx="244" cy="242" r="1" fill="#241d45"/><circle cx="274" cy="242" r="1" fill="#241d45"/><circle cx="304" cy="242" r="1" fill="#241d45"/><circle cx="334" cy="242" r="1" fill="#241d45"/><circle cx="364" cy="242" r="1" fill="#241d45"/><circle cx="394" cy="242" r="1" fill="#241d45"/><circle cx="424" cy="242" r="1" fill="#241d45"/><circle cx="454" cy="242" r="1" fill="#241d45"/><circle cx="484" cy="242" r="1" fill="#241d45"/><circle cx="514" cy="242" r="1" fill="#241d45"/><circle cx="544" cy="242" r="1" fill="#241d45"/><circle cx="574" cy="242" r="1" fill="#241d45"/><circle cx="604" cy="242" r="1" fill="#241d45"/>
  <rect x="38" y="70" width="150" height="118" rx="14" fill="#1b1633" stroke="#2a2150" stroke-width="1.5"/>
  <g transform="translate(113,110)"><circle r="11" fill="none" stroke="#60a5fa" stroke-width="2.6"/><path d="M0,-5.5 L0,0.5 L4.5,3.5" fill="none" stroke="#60a5fa" stroke-width="2.6" stroke-linecap="round" stroke-linejoin="round"/></g>
  <text x="113" y="152" text-anchor="middle" font-family="'Segoe UI',Helvetica,Arial,sans-serif" font-size="14" font-weight="700" fill="#ffffff">Schedule Trigger</text>
  <text x="113" y="171" text-anchor="middle" font-family="'Segoe UI',Helvetica,Arial,sans-serif" font-size="11.5" fill="#8b84b5">every Monday</text>
  <rect x="232" y="70" width="150" height="118" rx="14" fill="#241d45" stroke="#7c3aed" stroke-width="1.5"/>
  <g transform="translate(307,110)"><g transform="translate(-11,-11) scale(0.7)"><rect width="32" height="32" rx="8" fill="#7c3aed"/><path d="M6.6 20.4 L8.2 10.6 L12.4 14.4 L16 8 L19.6 14.4 L23.8 10.6 L25.4 20.4 Z" fill="#ffffff"/><rect x="7" y="21.8" width="18" height="2.6" rx="1.3" fill="#ffffff"/></g></g>
  <text x="307" y="152" text-anchor="middle" font-family="'Segoe UI',Helvetica,Arial,sans-serif" font-size="14" font-weight="700" fill="#ffffff">PostQueen</text>
  <text x="307" y="171" text-anchor="middle" font-family="'Segoe UI',Helvetica,Arial,sans-serif" font-size="11.5" fill="#8b84b5">Get Posts &#183; 7 days</text>
  <rect x="426" y="70" width="150" height="118" rx="14" fill="#1b1633" stroke="#2a2150" stroke-width="1.5"/>
  <svg viewBox="0 0 33 32" width="30" height="30" x="486" y="95"><path d="M9.35432 19.7481C9.35432 21.1851 8.1929 22.3465 6.7559 22.3465C5.31889 22.3465 4.15747 21.1851 4.15747 19.7481C4.15747 18.3111 5.31889 17.1497 6.7559 17.1497H9.35432V19.7481ZM10.6535 19.7481C10.6535 18.3111 11.815 17.1497 13.252 17.1497C14.689 17.1497 15.8504 18.3111 15.8504 19.7481V26.2441C15.8504 27.6812 14.689 28.8426 13.252 28.8426C11.815 28.8426 10.6535 27.6812 10.6535 26.2441V19.7481Z" fill="#E01E5A"/>
<path d="M13.252 9.31501C11.815 9.31501 10.6536 8.1536 10.6536 6.71659C10.6536 5.27958 11.815 4.11816 13.252 4.11816C14.689 4.11816 15.8504 5.27958 15.8504 6.71659V9.31501H13.252ZM13.252 10.6339C14.689 10.6339 15.8504 11.7953 15.8504 13.2323C15.8504 14.6693 14.689 15.8308 13.252 15.8308H6.73624C5.29923 15.8308 4.13782 14.6693 4.13782 13.2323C4.13782 11.7953 5.29923 10.6339 6.73624 10.6339H13.252Z" fill="#36C5F0"/>
<path d="M23.6654 13.2323C23.6654 11.7953 24.8268 10.6339 26.2638 10.6339C27.7008 10.6339 28.8622 11.7953 28.8622 13.2323C28.8622 14.6693 27.7008 15.8308 26.2638 15.8308H23.6654V13.2323ZM22.3662 13.2323C22.3662 14.6693 21.2047 15.8308 19.7677 15.8308C18.3307 15.8308 17.1693 14.6693 17.1693 13.2323V6.71659C17.1693 5.27958 18.3307 4.11816 19.7677 4.11816C21.2047 4.11816 22.3662 5.27958 22.3662 6.71659V13.2323Z" fill="#2EB67D"/>
<path d="M19.7677 23.6457C21.2047 23.6457 22.3662 24.8071 22.3662 26.2441C22.3662 27.6812 21.2047 28.8426 19.7677 28.8426C18.3307 28.8426 17.1693 27.6812 17.1693 26.2441V23.6457H19.7677ZM19.7677 22.3465C18.3307 22.3465 17.1693 21.1851 17.1693 19.7481C17.1693 18.3111 18.3307 17.1497 19.7677 17.1497H26.2835C27.7205 17.1497 28.8819 18.3111 28.8819 19.7481C28.8819 21.1851 27.7205 22.3465 26.2835 22.3465H19.7677Z" fill="#ECB22E"/></svg>
  <text x="501" y="152" text-anchor="middle" font-family="'Segoe UI',Helvetica,Arial,sans-serif" font-size="14" font-weight="700" fill="#ffffff">Slack alert</text>
  <text x="501" y="171" text-anchor="middle" font-family="'Segoe UI',Helvetica,Arial,sans-serif" font-size="11.5" fill="#8b84b5">if the queue is empty</text>
  <line x1="192" y1="129" x2="226" y2="129" stroke="#5b21b6" stroke-width="2.5"/><path d="M226,129 L218,124 L218,134 Z" fill="#5b21b6"/>
  <line x1="386" y1="129" x2="420" y2="129" stroke="#5b21b6" stroke-width="2.5"/><path d="M420,129 L412,124 L412,134 Z" fill="#5b21b6"/>

  <rect x="214" y="216" width="193" height="34" rx="17" fill="#16351f"/>
  <circle cx="236" cy="233" r="7.5" fill="#16a34a"/>
  <path d="M232.5,233 L235.2,235.8 L239.8,230.4" stroke="#ffffff" stroke-width="1.8" fill="none" stroke-linecap="round" stroke-linejoin="round"/>
  <text x="252" y="238" font-family="'Segoe UI',Helvetica,Arial,sans-serif" font-size="13.5" font-weight="600" fill="#4ade80">Never an empty week</text>
</svg>
