<svg xmlns="http://www.w3.org/2000/svg" width="620" height="280" viewBox="0 0 620 280" role="img" aria-label="n8n workflow: a new video file triggers PostQueen Upload File then Create Post — clips scheduled to TikTok, Reels and Shorts">
  <defs>
    <linearGradient id="bg" x1="0" y1="0" x2="1" y2="1"><stop offset="0" stop-color="#0f0e1d"/><stop offset="1" stop-color="#171331"/></linearGradient>
  </defs>
  <rect x="1" y="1" width="618" height="278" rx="22" fill="url(#bg)" stroke="#2a2150" stroke-width="1.5"/>
  <circle cx="34" cy="34" r="1" fill="#241d45"/><circle cx="64" cy="34" r="1" fill="#241d45"/><circle cx="94" cy="34" r="1" fill="#241d45"/><circle cx="124" cy="34" r="1" fill="#241d45"/><circle cx="154" cy="34" r="1" fill="#241d45"/><circle cx="184" cy="34" r="1" fill="#241d45"/><circle cx="214" cy="34" r="1" fill="#241d45"/><circle cx="244" cy="34" r="1" fill="#241d45"/><circle cx="274" cy="34" r="1" fill="#241d45"/><circle cx="304" cy="34" r="1" fill="#241d45"/><circle cx="334" cy="34" r="1" fill="#241d45"/><circle cx="364" cy="34" r="1" fill="#241d45"/><circle cx="394" cy="34" r="1" fill="#241d45"/><circle cx="424" cy="34" r="1" fill="#241d45"/><circle cx="454" cy="34" r="1" fill="#241d45"/><circle cx="484" cy="34" r="1" fill="#241d45"/><circle cx="514" cy="34" r="1" fill="#241d45"/><circle cx="544" cy="34" r="1" fill="#241d45"/><circle cx="574" cy="34" r="1" fill="#241d45"/><circle cx="604" cy="34" r="1" fill="#241d45"/>
  <circle cx="34" cy="60" r="1" fill="#241d45"/><circle cx="64" cy="60" r="1" fill="#241d45"/><circle cx="94" cy="60" r="1" fill="#241d45"/><circle cx="124" cy="60" r="1" fill="#241d45"/><circle cx="154" cy="60" r="1" fill="#241d45"/><circle cx="184" cy="60" r="1" fill="#241d45"/><circle cx="214" cy="60" r="1" fill="#241d45"/><circle cx="244" cy="60" r="1" fill="#241d45"/><circle cx="274" cy="60" r="1" fill="#241d45"/><circle cx="304" cy="60" r="1" fill="#241d45"/><circle cx="334" cy="60" r="1" fill="#241d45"/><circle cx="364" cy="60" r="1" fill="#241d45"/><circle cx="394" cy="60" r="1" fill="#241d45"/><circle cx="424" cy="60" r="1" fill="#241d45"/><circle cx="454" cy="60" r="1" fill="#241d45"/><circle cx="484" cy="60" r="1" fill="#241d45"/><circle cx="514" cy="60" r="1" fill="#241d45"/><circle cx="544" cy="60" r="1" fill="#241d45"/><circle cx="574" cy="60" r="1" fill="#241d45"/><circle cx="604" cy="60" r="1" fill="#241d45"/>
  <circle cx="34" cy="86" r="1" fill="#241d45"/><circle cx="64" cy="86" r="1" fill="#241d45"/><circle cx="94" cy="86" r="1" fill="#241d45"/><circle cx="124" cy="86" r="1" fill="#241d45"/><circle cx="154" cy="86" r="1" fill="#241d45"/><circle cx="184" cy="86" r="1" fill="#241d45"/><circle cx="214" cy="86" r="1" fill="#241d45"/><circle cx="244" cy="86" r="1" fill="#241d45"/><circle cx="274" cy="86" r="1" fill="#241d45"/><circle cx="304" cy="86" r="1" fill="#241d45"/><circle cx="334" cy="86" r="1" fill="#241d45"/><circle cx="364" cy="86" r="1" fill="#241d45"/><circle cx="394" cy="86" r="1" fill="#241d45"/><circle cx="424" cy="86" r="1" fill="#241d45"/><circle cx="454" cy="86" r="1" fill="#241d45"/><circle cx="484" cy="86" r="1" fill="#241d45"/><circle cx="514" cy="86" r="1" fill="#241d45"/><circle cx="544" cy="86" r="1" fill="#241d45"/><circle cx="574" cy="86" r="1" fill="#241d45"/><circle cx="604" cy="86" r="1" fill="#241d45"/>
  <circle cx="34" cy="112" r="1" fill="#241d45"/><circle cx="64" cy="112" r="1" fill="#241d45"/><circle cx="94" cy="112" r="1" fill="#241d45"/><circle cx="124" cy="112" r="1" fill="#241d45"/><circle cx="154" cy="112" r="1" fill="#241d45"/><circle cx="184" cy="112" r="1" fill="#241d45"/><circle cx="214" cy="112" r="1" fill="#241d45"/><circle cx="244" cy="112" r="1" fill="#241d45"/><circle cx="274" cy="112" r="1" fill="#241d45"/><circle cx="304" cy="112" r="1" fill="#241d45"/><circle cx="334" cy="112" r="1" fill="#241d45"/><circle cx="364" cy="112" r="1" fill="#241d45"/><circle cx="394" cy="112" r="1" fill="#241d45"/><circle cx="424" cy="112" r="1" fill="#241d45"/><circle cx="454" cy="112" r="1" fill="#241d45"/><circle cx="484" cy="112" r="1" fill="#241d45"/><circle cx="514" cy="112" r="1" fill="#241d45"/><circle cx="544" cy="112" r="1" fill="#241d45"/><circle cx="574" cy="112" r="1" fill="#241d45"/><circle cx="604" cy="112" r="1" fill="#241d45"/>
  <circle cx="34" cy="138" r="1" fill="#241d45"/><circle cx="64" cy="138" r="1" fill="#241d45"/><circle cx="94" cy="138" r="1" fill="#241d45"/><circle cx="124" cy="138" r="1" fill="#241d45"/><circle cx="154" cy="138" r="1" fill="#241d45"/><circle cx="184" cy="138" r="1" fill="#241d45"/><circle cx="214" cy="138" r="1" fill="#241d45"/><circle cx="244" cy="138" r="1" fill="#241d45"/><circle cx="274" cy="138" r="1" fill="#241d45"/><circle cx="304" cy="138" r="1" fill="#241d45"/><circle cx="334" cy="138" r="1" fill="#241d45"/><circle cx="364" cy="138" r="1" fill="#241d45"/><circle cx="394" cy="138" r="1" fill="#241d45"/><circle cx="424" cy="138" r="1" fill="#241d45"/><circle cx="454" cy="138" r="1" fill="#241d45"/><circle cx="484" cy="138" r="1" fill="#241d45"/><circle cx="514" cy="138" r="1" fill="#241d45"/><circle cx="544" cy="138" r="1" fill="#241d45"/><circle cx="574" cy="138" r="1" fill="#241d45"/><circle cx="604" cy="138" r="1" fill="#241d45"/>
  <circle cx="34" cy="164" r="1" fill="#241d45"/><circle cx="64" cy="164" r="1" fill="#241d45"/><circle cx="94" cy="164" r="1" fill="#241d45"/><circle cx="124" cy="164" r="1" fill="#241d45"/><circle cx="154" cy="164" r="1" fill="#241d45"/><circle cx="184" cy="164" r="1" fill="#241d45"/><circle cx="214" cy="164" r="1" fill="#241d45"/><circle cx="244" cy="164" r="1" fill="#241d45"/><circle cx="274" cy="164" r="1" fill="#241d45"/><circle cx="304" cy="164" r="1" fill="#241d45"/><circle cx="334" cy="164" r="1" fill="#241d45"/><circle cx="364" cy="164" r="1" fill="#241d45"/><circle cx="394" cy="164" r="1" fill="#241d45"/><circle cx="424" cy="164" r="1" fill="#241d45"/><circle cx="454" cy="164" r="1" fill="#241d45"/><circle cx="484" cy="164" r="1" fill="#241d45"/><circle cx="514" cy="164" r="1" fill="#241d45"/><circle cx="544" cy="164" r="1" fill="#241d45"/><circle cx="574" cy="164" r="1" fill="#241d45"/><circle cx="604" cy="164" r="1" fill="#241d45"/>
  <circle cx="34" cy="190" r="1" fill="#241d45"/><circle cx="64" cy="190" r="1" fill="#241d45"/><circle cx="94" cy="190" r="1" fill="#241d45"/><circle cx="124" cy="190" r="1" fill="#241d45"/><circle cx="154" cy="190" r="1" fill="#241d45"/><circle cx="184" cy="190" r="1" fill="#241d45"/><circle cx="214" cy="190" r="1" fill="#241d45"/><circle cx="244" cy="190" r="1" fill="#241d45"/><circle cx="274" cy="190" r="1" fill="#241d45"/><circle cx="304" cy="190" r="1" fill="#241d45"/><circle cx="334" cy="190" r="1" fill="#241d45"/><circle cx="364" cy="190" r="1" fill="#241d45"/><circle cx="394" cy="190" r="1" fill="#241d45"/><circle cx="424" cy="190" r="1" fill="#241d45"/><circle cx="454" cy="190" r="1" fill="#241d45"/><circle cx="484" cy="190" r="1" fill="#241d45"/><circle cx="514" cy="190" r="1" fill="#241d45"/><circle cx="544" cy="190" r="1" fill="#241d45"/><circle cx="574" cy="190" r="1" fill="#241d45"/><circle cx="604" cy="190" r="1" fill="#241d45"/>
  <circle cx="34" cy="216" r="1" fill="#241d45"/><circle cx="64" cy="216" r="1" fill="#241d45"/><circle cx="94" cy="216" r="1" fill="#241d45"/><circle cx="124" cy="216" r="1" fill="#241d45"/><circle cx="154" cy="216" r="1" fill="#241d45"/><circle cx="184" cy="216" r="1" fill="#241d45"/><circle cx="214" cy="216" r="1" fill="#241d45"/><circle cx="244" cy="216" r="1" fill="#241d45"/><circle cx="274" cy="216" r="1" fill="#241d45"/><circle cx="304" cy="216" r="1" fill="#241d45"/><circle cx="334" cy="216" r="1" fill="#241d45"/><circle cx="364" cy="216" r="1" fill="#241d45"/><circle cx="394" cy="216" r="1" fill="#241d45"/><circle cx="424" cy="216" r="1" fill="#241d45"/><circle cx="454" cy="216" r="1" fill="#241d45"/><circle cx="484" cy="216" r="1" fill="#241d45"/><circle cx="514" cy="216" r="1" fill="#241d45"/><circle cx="544" cy="216" r="1" fill="#241d45"/><circle cx="574" cy="216" r="1" fill="#241d45"/><circle cx="604" cy="216" r="1" fill="#241d45"/>
  <circle cx="34" cy="242" r="1" fill="#241d45"/><circle cx="64" cy="242" r="1" fill="#241d45"/><circle cx="94" cy="242" r="1" fill="#241d45"/><circle cx="124" cy="242" r="1" fill="#241d45"/><circle cx="154" cy="242" r="1" fill="#241d45"/><circle cx="184" cy="242" r="1" fill="#241d45"/><circle cx="214" cy="242" r="1" fill="#241d45"/><circle cx="244" cy="242" r="1" fill="#241d45"/><circle cx="274" cy="242" r="1" fill="#241d45"/><circle cx="304" cy="242" r="1" fill="#241d45"/><circle cx="334" cy="242" r="1" fill="#241d45"/><circle cx="364" cy="242" r="1" fill="#241d45"/><circle cx="394" cy="242" r="1" fill="#241d45"/><circle cx="424" cy="242" r="1" fill="#241d45"/><circle cx="454" cy="242" r="1" fill="#241d45"/><circle cx="484" cy="242" r="1" fill="#241d45"/><circle cx="514" cy="242" r="1" fill="#241d45"/><circle cx="544" cy="242" r="1" fill="#241d45"/><circle cx="574" cy="242" r="1" fill="#241d45"/><circle cx="604" cy="242" r="1" fill="#241d45"/>
  <rect x="38" y="70" width="150" height="118" rx="14" fill="#1b1633" stroke="#2a2150" stroke-width="1.5"/>
  <g transform="translate(113,110)"><path d="M-12,-7 L-4,-7 L-1,-3.5 L12,-3.5 L12,8 Q12,10 10,10 L-10,10 Q-12,10 -12,8 Z" fill="none" stroke="#f59e0b" stroke-width="2.4" stroke-linejoin="round"/><path d="M0,7 L0,-0.5 M-3.2,2.5 L0,-0.9 L3.2,2.5" fill="none" stroke="#f59e0b" stroke-width="2.2" stroke-linecap="round" stroke-linejoin="round"/></g>
  <text x="113" y="152" text-anchor="middle" font-family="'Segoe UI',Helvetica,Arial,sans-serif" font-size="14" font-weight="700" fill="#ffffff">New video file</text>
  <text x="113" y="171" text-anchor="middle" font-family="'Segoe UI',Helvetica,Arial,sans-serif" font-size="11.5" fill="#8b84b5">Drive &#183; Dropbox &#183; S3</text>
  <rect x="232" y="70" width="150" height="118" rx="14" fill="#241d45" stroke="#7c3aed" stroke-width="1.5"/>
  <g transform="translate(307,110)"><g transform="translate(-11,-11) scale(0.7)"><rect width="32" height="32" rx="8" fill="#7c3aed"/><path d="M6.6 20.4 L8.2 10.6 L12.4 14.4 L16 8 L19.6 14.4 L23.8 10.6 L25.4 20.4 Z" fill="#ffffff"/><rect x="7" y="21.8" width="18" height="2.6" rx="1.3" fill="#ffffff"/></g></g>
  <text x="307" y="152" text-anchor="middle" font-family="'Segoe UI',Helvetica,Arial,sans-serif" font-size="14" font-weight="700" fill="#ffffff">PostQueen</text>
  <text x="307" y="171" text-anchor="middle" font-family="'Segoe UI',Helvetica,Arial,sans-serif" font-size="11.5" fill="#8b84b5">Upload File</text>
  <rect x="426" y="70" width="150" height="118" rx="14" fill="#241d45" stroke="#7c3aed" stroke-width="1.5"/>
  <g transform="translate(501,110)"><g transform="translate(-11,-11) scale(0.7)"><rect width="32" height="32" rx="8" fill="#7c3aed"/><path d="M6.6 20.4 L8.2 10.6 L12.4 14.4 L16 8 L19.6 14.4 L23.8 10.6 L25.4 20.4 Z" fill="#ffffff"/><rect x="7" y="21.8" width="18" height="2.6" rx="1.3" fill="#ffffff"/></g></g>
  <text x="501" y="152" text-anchor="middle" font-family="'Segoe UI',Helvetica,Arial,sans-serif" font-size="14" font-weight="700" fill="#ffffff">PostQueen</text>
  <text x="501" y="171" text-anchor="middle" font-family="'Segoe UI',Helvetica,Arial,sans-serif" font-size="11.5" fill="#8b84b5">Create Post &#215; 3</text>
  <line x1="192" y1="129" x2="226" y2="129" stroke="#5b21b6" stroke-width="2.5"/><path d="M226,129 L218,124 L218,134 Z" fill="#5b21b6"/>
  <line x1="386" y1="129" x2="420" y2="129" stroke="#5b21b6" stroke-width="2.5"/><path d="M420,129 L412,124 L412,134 Z" fill="#5b21b6"/>
  <svg viewBox="0 0 64 64" width="20" height="20" x="272" y="188"><svg viewBox="0 0 70 71" width="64" height="64" x="0" y="0">
<rect x="-0.00292969" y="0.496094" width="69.999" height="69.999" rx="14" fill="#242424"/>
<path d="M42.7751 30.6611C45.5509 32.6524 48.9515 33.8241 52.6242 33.8241V26.7314C51.9291 26.7316 51.2358 26.6588 50.5558 26.5143V32.0972C46.8834 32.0972 43.4833 30.9255 40.7067 28.9343V43.4084C40.7067 50.6491 34.8578 56.5184 27.6433 56.5184C24.9514 56.5184 22.4494 55.7017 20.371 54.301C22.7431 56.7351 26.0513 58.2451 29.7113 58.2451C36.9262 58.2451 42.7754 52.3758 42.7754 45.1349V30.6611H42.7751ZM45.3266 23.5055C43.908 21.9501 42.9766 19.9401 42.7751 17.7179V16.8057H40.815C41.3083 19.63 42.9912 22.043 45.3266 23.5055ZM24.9341 48.7447C24.1416 47.7018 23.7132 46.4259 23.7152 45.1141C23.7152 41.8025 26.3904 39.1174 29.6909 39.1174C30.306 39.1173 30.9174 39.2118 31.5036 39.3985V32.1473C30.8186 32.053 30.1272 32.0131 29.4361 32.0277V37.6717C28.8495 37.485 28.2378 37.3902 27.6225 37.3908C24.322 37.3908 21.6469 40.0756 21.6469 43.3877C21.6469 45.7295 22.9841 47.757 24.9341 48.7447Z" fill="#FF004F"/>
<path d="M40.7078 28.9342C43.4844 30.9254 46.8845 32.0971 50.557 32.0971V26.5141C48.507 26.0759 46.6923 25.0008 45.3278 23.5055C42.9922 22.0428 41.3095 19.6299 40.8161 16.8057H35.6675V45.1346C35.6559 48.4372 32.9852 51.1113 29.6918 51.1113C27.751 51.1113 26.0268 50.1829 24.9349 48.7447C22.985 47.757 21.6478 45.7294 21.6478 43.3878C21.6478 40.0761 24.3229 37.391 27.6234 37.391C28.2557 37.391 28.8652 37.4898 29.437 37.6718V32.0279C22.3492 32.1748 16.6489 37.9868 16.6489 45.1347C16.6489 48.7029 18.0684 51.9376 20.3723 54.3011C22.4507 55.7017 24.9527 56.5185 27.6446 56.5185C34.8593 56.5185 40.708 50.6489 40.708 43.4084V28.9342H40.7078Z" fill="white"/>
<path d="M50.5555 26.5132V25.0036C48.707 25.0064 46.8947 24.4869 45.3264 23.5044C46.7147 25.0298 48.5429 26.0816 50.5555 26.5132ZM40.8147 16.8047C40.7676 16.5348 40.7315 16.2631 40.7064 15.9904V15.0781H33.5975V43.4073C33.5862 46.7095 30.9156 49.3836 27.6219 49.3836C26.6549 49.3836 25.7419 49.1532 24.9334 48.7439C26.0254 50.1819 27.7495 51.1102 29.6903 51.1102C32.9834 51.1102 35.6545 48.4364 35.6661 45.1338V16.8047H40.8147ZM29.4358 32.0269V30.4199C28.8418 30.3384 28.2429 30.2975 27.6433 30.2978C20.4281 30.2977 14.5792 36.1673 14.5792 43.4073C14.5792 47.9465 16.8779 51.9468 20.371 54.2999C18.0671 51.9366 16.6476 48.7017 16.6476 45.1337C16.6476 37.9859 22.3477 32.1739 29.4358 32.0269Z" fill="#00F2EA"/>

</svg></svg><svg viewBox="0 0 64 64" width="20" height="20" x="300" y="188"><svg viewBox="0 0 70 71" width="64" height="64" x="0" y="0">
<rect y="0.496094" width="69.999" height="69.999" rx="14" fill="#1877F2"/>
<rect y="0.496094" width="69.999" height="69.999" rx="14" fill="url(#ig_paint0_radial_292_12847)"/>
<path d="M27.3063 35.4953C27.3063 31.2456 30.7504 27.7996 35.0001 27.7996C39.2498 27.7996 42.6958 31.2456 42.6958 35.4953C42.6958 39.7449 39.2498 43.1909 35.0001 43.1909C30.7504 43.1909 27.3063 39.7449 27.3063 35.4953ZM23.1462 35.4953C23.1462 42.0422 28.4532 47.3492 35.0001 47.3492C41.5471 47.3492 46.8541 42.0422 46.8541 35.4953C46.8541 28.9483 41.5471 23.6413 35.0001 23.6413C28.4532 23.6413 23.1464 28.948 23.1464 35.4953M44.5533 23.1713C44.5531 23.7192 44.7153 24.2549 45.0196 24.7106C45.3238 25.1662 45.7563 25.5215 46.2624 25.7313C46.7685 25.9412 47.3255 25.9963 47.8629 25.8896C48.4003 25.783 48.894 25.5193 49.2816 25.132C49.6691 24.7448 49.9332 24.2513 50.0403 23.714C50.1474 23.1766 50.0927 22.6196 49.8833 22.1133C49.6738 21.6071 49.3189 21.1743 48.8635 20.8697C48.408 20.5651 47.8725 20.4024 47.3246 20.4022H47.3235C46.5891 20.4026 45.8849 20.6944 45.3654 21.2136C44.846 21.7328 44.5539 22.4369 44.5533 23.1713ZM25.6738 54.2861C23.4231 54.1837 22.1997 53.8088 21.3868 53.492C20.309 53.0724 19.54 52.5727 18.7314 51.7653C17.9229 50.9578 17.4224 50.1896 17.0047 49.1118C16.6877 48.2992 16.3128 47.0755 16.2105 44.8248C16.0986 42.3914 16.0763 41.6604 16.0763 35.4956C16.0763 29.3308 16.1005 28.6019 16.2105 26.1665C16.313 23.9158 16.6907 22.6945 17.0047 21.8795C17.4243 20.8017 17.924 20.0327 18.7314 19.2241C19.5388 18.4156 20.3071 17.9151 21.3868 17.4974C22.1994 17.1805 23.4231 16.8056 25.6738 16.7032C28.1071 16.5913 28.8381 16.569 35.0001 16.569C41.1622 16.569 41.8939 16.5928 44.3293 16.7036C46.58 16.8061 47.8013 17.1838 48.6163 17.4977C49.6941 17.9155 50.4631 18.4171 51.2716 19.2245C52.0801 20.0319 52.5788 20.8021 52.9984 21.8798C53.3153 22.6924 53.6902 23.9161 53.7925 26.1668C53.9044 28.6022 53.9268 29.3312 53.9268 35.496C53.9268 41.6608 53.9044 42.3898 53.7925 44.8251C53.69 47.0758 53.3133 48.2992 52.9984 49.1121C52.5788 50.1899 52.079 50.9589 51.2716 51.7656C50.4642 52.5723 49.6941 53.0728 48.6163 53.4924C47.8037 53.8093 46.58 54.1842 44.3293 54.2865C41.8959 54.3984 41.165 54.4208 35.0001 54.4208C28.8353 54.4208 28.1064 54.3984 25.6738 54.2865M25.4826 12.55C23.0251 12.6619 21.3458 13.0516 19.8792 13.6222C18.3613 14.2115 17.0746 15.0022 15.7898 16.2849C14.505 17.5677 13.7164 18.8546 13.1271 20.3743C12.5564 21.8418 12.1668 23.5202 12.0548 25.9777C11.9411 28.4392 11.915 29.2261 11.915 35.4953C11.915 41.7644 11.9411 42.5514 12.0548 45.0128C12.1668 47.4705 12.5564 49.1487 13.1271 50.6162C13.7164 52.1341 14.5052 53.4233 15.7898 54.7056C17.0745 55.9878 18.3595 56.7773 19.8792 57.3683C21.3485 57.9389 23.0251 58.3286 25.4826 58.4405C27.9453 58.5525 28.731 58.5803 35.0001 58.5803C41.2693 58.5803 42.0562 58.5543 44.5177 58.4405C46.9754 58.3286 48.6536 57.9389 50.1211 57.3683C51.6389 56.7773 52.9256 55.9883 54.2104 54.7056C55.4953 53.4228 56.2822 52.1341 56.8732 50.6162C57.4438 49.1487 57.8354 47.4703 57.9454 45.0128C58.0573 42.5495 58.0834 41.7644 58.0834 35.4953C58.0834 29.2261 58.0573 28.4392 57.9454 25.9777C57.8335 23.52 57.4438 21.8409 56.8732 20.3743C56.2822 18.8564 55.4932 17.5698 54.2104 16.2849C52.9277 15.0001 51.6389 14.2115 50.1229 13.6222C48.6536 13.0516 46.9752 12.66 44.5195 12.55C42.0577 12.4375 41.2712 12.4102 35.0029 12.4102C28.7347 12.4102 27.9463 12.4362 25.4835 12.55" fill="white"/>
<defs>
<radialGradient id="ig_paint0_radial_292_12847" cx="0" cy="0" r="1" gradientUnits="userSpaceOnUse" gradientTransform="translate(4.53027 68.9617) scale(88.8728)">
<stop offset="0.09" stop-color="#FA8F21"/>
<stop offset="0.78" stop-color="#D82D7E"/>
</radialGradient>
</defs>

</svg></svg><svg viewBox="0 0 64 64" width="20" height="20" x="328" y="188"><svg viewBox="0 0 70 71" width="64" height="64" x="0" y="0">
<rect x="-0.00390625" y="0.496094" width="69.999" height="69.999" rx="14" fill="#FF0000"/>
<path d="M55.378 25.4767C54.8977 23.6925 53.4908 22.2856 51.7065 21.8052C48.4468 20.9131 35.4077 20.9131 35.4077 20.9131C35.4077 20.9131 22.3687 20.9131 19.1089 21.7709C17.359 22.2513 15.9178 23.6925 15.4374 25.4767C14.5796 28.7365 14.5796 35.4962 14.5796 35.4962C14.5796 35.4962 14.5796 42.2902 15.4374 45.5157C15.9178 47.3 17.3246 48.7068 19.1089 49.1872C22.403 50.0793 35.4077 50.0793 35.4077 50.0793C35.4077 50.0793 48.4468 50.0793 51.7065 49.2215C53.4908 48.7411 54.8977 47.3343 55.378 45.55C56.2359 42.2902 56.2359 35.5305 56.2359 35.5305C56.2359 35.5305 56.2702 28.7365 55.378 25.4767Z" fill="white"/>
<path d="M31.2554 41.741L42.0984 35.496L31.2554 29.251V41.741Z" fill="#FF0000"/>

</svg></svg>
  <rect x="165" y="216" width="291" height="34" rx="17" fill="#16351f"/>
  <circle cx="187" cy="233" r="7.5" fill="#16a34a"/>
  <path d="M183.5,233 L186.2,235.8 L190.8,230.4" stroke="#ffffff" stroke-width="1.8" fill="none" stroke-linecap="round" stroke-linejoin="round"/>
  <text x="203" y="238" font-family="'Segoe UI',Helvetica,Arial,sans-serif" font-size="13.5" font-weight="600" fill="#4ade80">Clips on TikTok, Reels and Shorts</text>
</svg>
