<svg xmlns="http://www.w3.org/2000/svg" width="620" height="280" viewBox="0 0 620 280" role="img" aria-label="n8n workflow: RSS trigger, AI caption, PostQueen Create Post, posts scheduled">
  <defs>
    <linearGradient id="bg" x1="0" y1="0" x2="1" y2="1"><stop offset="0" stop-color="#0f0e1d"/><stop offset="1" stop-color="#171331"/></linearGradient>
  </defs>
  <rect x="1" y="1" width="618" height="278" rx="22" fill="url(#bg)" stroke="#2a2150" stroke-width="1.5"/>
  <!-- dotted canvas -->
  <circle cx="34" cy="34" r="1" fill="#241d45"/><circle cx="64" cy="34" r="1" fill="#241d45"/><circle cx="94" cy="34" r="1" fill="#241d45"/><circle cx="124" cy="34" r="1" fill="#241d45"/><circle cx="154" cy="34" r="1" fill="#241d45"/><circle cx="184" cy="34" r="1" fill="#241d45"/><circle cx="214" cy="34" r="1" fill="#241d45"/><circle cx="244" cy="34" r="1" fill="#241d45"/><circle cx="274" cy="34" r="1" fill="#241d45"/><circle cx="304" cy="34" r="1" fill="#241d45"/><circle cx="334" cy="34" r="1" fill="#241d45"/><circle cx="364" cy="34" r="1" fill="#241d45"/><circle cx="394" cy="34" r="1" fill="#241d45"/><circle cx="424" cy="34" r="1" fill="#241d45"/><circle cx="454" cy="34" r="1" fill="#241d45"/><circle cx="484" cy="34" r="1" fill="#241d45"/><circle cx="514" cy="34" r="1" fill="#241d45"/><circle cx="544" cy="34" r="1" fill="#241d45"/><circle cx="574" cy="34" r="1" fill="#241d45"/><circle cx="604" cy="34" r="1" fill="#241d45"/>
  <circle cx="34" cy="60" r="1" fill="#241d45"/><circle cx="64" cy="60" r="1" fill="#241d45"/><circle cx="94" cy="60" r="1" fill="#241d45"/><circle cx="124" cy="60" r="1" fill="#241d45"/><circle cx="154" cy="60" r="1" fill="#241d45"/><circle cx="184" cy="60" r="1" fill="#241d45"/><circle cx="214" cy="60" r="1" fill="#241d45"/><circle cx="244" cy="60" r="1" fill="#241d45"/><circle cx="274" cy="60" r="1" fill="#241d45"/><circle cx="304" cy="60" r="1" fill="#241d45"/><circle cx="334" cy="60" r="1" fill="#241d45"/><circle cx="364" cy="60" r="1" fill="#241d45"/><circle cx="394" cy="60" r="1" fill="#241d45"/><circle cx="424" cy="60" r="1" fill="#241d45"/><circle cx="454" cy="60" r="1" fill="#241d45"/><circle cx="484" cy="60" r="1" fill="#241d45"/><circle cx="514" cy="60" r="1" fill="#241d45"/><circle cx="544" cy="60" r="1" fill="#241d45"/><circle cx="574" cy="60" r="1" fill="#241d45"/><circle cx="604" cy="60" r="1" fill="#241d45"/>
  <circle cx="34" cy="86" r="1" fill="#241d45"/><circle cx="64" cy="86" r="1" fill="#241d45"/><circle cx="94" cy="86" r="1" fill="#241d45"/><circle cx="124" cy="86" r="1" fill="#241d45"/><circle cx="154" cy="86" r="1" fill="#241d45"/><circle cx="184" cy="86" r="1" fill="#241d45"/><circle cx="214" cy="86" r="1" fill="#241d45"/><circle cx="244" cy="86" r="1" fill="#241d45"/><circle cx="274" cy="86" r="1" fill="#241d45"/><circle cx="304" cy="86" r="1" fill="#241d45"/><circle cx="334" cy="86" r="1" fill="#241d45"/><circle cx="364" cy="86" r="1" fill="#241d45"/><circle cx="394" cy="86" r="1" fill="#241d45"/><circle cx="424" cy="86" r="1" fill="#241d45"/><circle cx="454" cy="86" r="1" fill="#241d45"/><circle cx="484" cy="86" r="1" fill="#241d45"/><circle cx="514" cy="86" r="1" fill="#241d45"/><circle cx="544" cy="86" r="1" fill="#241d45"/><circle cx="574" cy="86" r="1" fill="#241d45"/><circle cx="604" cy="86" r="1" fill="#241d45"/>
  <circle cx="34" cy="112" r="1" fill="#241d45"/><circle cx="64" cy="112" r="1" fill="#241d45"/><circle cx="94" cy="112" r="1" fill="#241d45"/><circle cx="124" cy="112" r="1" fill="#241d45"/><circle cx="154" cy="112" r="1" fill="#241d45"/><circle cx="184" cy="112" r="1" fill="#241d45"/><circle cx="214" cy="112" r="1" fill="#241d45"/><circle cx="244" cy="112" r="1" fill="#241d45"/><circle cx="274" cy="112" r="1" fill="#241d45"/><circle cx="304" cy="112" r="1" fill="#241d45"/><circle cx="334" cy="112" r="1" fill="#241d45"/><circle cx="364" cy="112" r="1" fill="#241d45"/><circle cx="394" cy="112" r="1" fill="#241d45"/><circle cx="424" cy="112" r="1" fill="#241d45"/><circle cx="454" cy="112" r="1" fill="#241d45"/><circle cx="484" cy="112" r="1" fill="#241d45"/><circle cx="514" cy="112" r="1" fill="#241d45"/><circle cx="544" cy="112" r="1" fill="#241d45"/><circle cx="574" cy="112" r="1" fill="#241d45"/><circle cx="604" cy="112" r="1" fill="#241d45"/>
  <circle cx="34" cy="138" r="1" fill="#241d45"/><circle cx="64" cy="138" r="1" fill="#241d45"/><circle cx="94" cy="138" r="1" fill="#241d45"/><circle cx="124" cy="138" r="1" fill="#241d45"/><circle cx="154" cy="138" r="1" fill="#241d45"/><circle cx="184" cy="138" r="1" fill="#241d45"/><circle cx="214" cy="138" r="1" fill="#241d45"/><circle cx="244" cy="138" r="1" fill="#241d45"/><circle cx="274" cy="138" r="1" fill="#241d45"/><circle cx="304" cy="138" r="1" fill="#241d45"/><circle cx="334" cy="138" r="1" fill="#241d45"/><circle cx="364" cy="138" r="1" fill="#241d45"/><circle cx="394" cy="138" r="1" fill="#241d45"/><circle cx="424" cy="138" r="1" fill="#241d45"/><circle cx="454" cy="138" r="1" fill="#241d45"/><circle cx="484" cy="138" r="1" fill="#241d45"/><circle cx="514" cy="138" r="1" fill="#241d45"/><circle cx="544" cy="138" r="1" fill="#241d45"/><circle cx="574" cy="138" r="1" fill="#241d45"/><circle cx="604" cy="138" r="1" fill="#241d45"/>
  <circle cx="34" cy="164" r="1" fill="#241d45"/><circle cx="64" cy="164" r="1" fill="#241d45"/><circle cx="94" cy="164" r="1" fill="#241d45"/><circle cx="124" cy="164" r="1" fill="#241d45"/><circle cx="154" cy="164" r="1" fill="#241d45"/><circle cx="184" cy="164" r="1" fill="#241d45"/><circle cx="214" cy="164" r="1" fill="#241d45"/><circle cx="244" cy="164" r="1" fill="#241d45"/><circle cx="274" cy="164" r="1" fill="#241d45"/><circle cx="304" cy="164" r="1" fill="#241d45"/><circle cx="334" cy="164" r="1" fill="#241d45"/><circle cx="364" cy="164" r="1" fill="#241d45"/><circle cx="394" cy="164" r="1" fill="#241d45"/><circle cx="424" cy="164" r="1" fill="#241d45"/><circle cx="454" cy="164" r="1" fill="#241d45"/><circle cx="484" cy="164" r="1" fill="#241d45"/><circle cx="514" cy="164" r="1" fill="#241d45"/><circle cx="544" cy="164" r="1" fill="#241d45"/><circle cx="574" cy="164" r="1" fill="#241d45"/><circle cx="604" cy="164" r="1" fill="#241d45"/>
  <circle cx="34" cy="190" r="1" fill="#241d45"/><circle cx="64" cy="190" r="1" fill="#241d45"/><circle cx="94" cy="190" r="1" fill="#241d45"/><circle cx="124" cy="190" r="1" fill="#241d45"/><circle cx="154" cy="190" r="1" fill="#241d45"/><circle cx="184" cy="190" r="1" fill="#241d45"/><circle cx="214" cy="190" r="1" fill="#241d45"/><circle cx="244" cy="190" r="1" fill="#241d45"/><circle cx="274" cy="190" r="1" fill="#241d45"/><circle cx="304" cy="190" r="1" fill="#241d45"/><circle cx="334" cy="190" r="1" fill="#241d45"/><circle cx="364" cy="190" r="1" fill="#241d45"/><circle cx="394" cy="190" r="1" fill="#241d45"/><circle cx="424" cy="190" r="1" fill="#241d45"/><circle cx="454" cy="190" r="1" fill="#241d45"/><circle cx="484" cy="190" r="1" fill="#241d45"/><circle cx="514" cy="190" r="1" fill="#241d45"/><circle cx="544" cy="190" r="1" fill="#241d45"/><circle cx="574" cy="190" r="1" fill="#241d45"/><circle cx="604" cy="190" r="1" fill="#241d45"/>
  <circle cx="34" cy="216" r="1" fill="#241d45"/><circle cx="64" cy="216" r="1" fill="#241d45"/><circle cx="94" cy="216" r="1" fill="#241d45"/><circle cx="124" cy="216" r="1" fill="#241d45"/><circle cx="154" cy="216" r="1" fill="#241d45"/><circle cx="184" cy="216" r="1" fill="#241d45"/><circle cx="214" cy="216" r="1" fill="#241d45"/><circle cx="244" cy="216" r="1" fill="#241d45"/><circle cx="274" cy="216" r="1" fill="#241d45"/><circle cx="304" cy="216" r="1" fill="#241d45"/><circle cx="334" cy="216" r="1" fill="#241d45"/><circle cx="364" cy="216" r="1" fill="#241d45"/><circle cx="394" cy="216" r="1" fill="#241d45"/><circle cx="424" cy="216" r="1" fill="#241d45"/><circle cx="454" cy="216" r="1" fill="#241d45"/><circle cx="484" cy="216" r="1" fill="#241d45"/><circle cx="514" cy="216" r="1" fill="#241d45"/><circle cx="544" cy="216" r="1" fill="#241d45"/><circle cx="574" cy="216" r="1" fill="#241d45"/><circle cx="604" cy="216" r="1" fill="#241d45"/>
  <circle cx="34" cy="242" r="1" fill="#241d45"/><circle cx="64" cy="242" r="1" fill="#241d45"/><circle cx="94" cy="242" r="1" fill="#241d45"/><circle cx="124" cy="242" r="1" fill="#241d45"/><circle cx="154" cy="242" r="1" fill="#241d45"/><circle cx="184" cy="242" r="1" fill="#241d45"/><circle cx="214" cy="242" r="1" fill="#241d45"/><circle cx="244" cy="242" r="1" fill="#241d45"/><circle cx="274" cy="242" r="1" fill="#241d45"/><circle cx="304" cy="242" r="1" fill="#241d45"/><circle cx="334" cy="242" r="1" fill="#241d45"/><circle cx="364" cy="242" r="1" fill="#241d45"/><circle cx="394" cy="242" r="1" fill="#241d45"/><circle cx="424" cy="242" r="1" fill="#241d45"/><circle cx="454" cy="242" r="1" fill="#241d45"/><circle cx="484" cy="242" r="1" fill="#241d45"/><circle cx="514" cy="242" r="1" fill="#241d45"/><circle cx="544" cy="242" r="1" fill="#241d45"/><circle cx="574" cy="242" r="1" fill="#241d45"/><circle cx="604" cy="242" r="1" fill="#241d45"/>
  
  <rect x="38" y="70" width="150" height="118" rx="14" fill="#1b1633" stroke="#2a2150" stroke-width="1.5"/>
  <g transform="translate(113,110)"><circle cx="-7" cy="7" r="2.8" fill="#f97316"/><path d="M-10,-2 A12,12 0 0 1 2,10" fill="none" stroke="#f97316" stroke-width="2.6" stroke-linecap="round"/><path d="M-10,-9 A19,19 0 0 1 9,10" fill="none" stroke="#f97316" stroke-width="2.6" stroke-linecap="round"/></g>
  <text x="113" y="152" text-anchor="middle" font-family="'Segoe UI',Helvetica,Arial,sans-serif" font-size="14" font-weight="700" fill="#ffffff">RSS Trigger</text>
  <text x="113" y="171" text-anchor="middle" font-family="'Segoe UI',Helvetica,Arial,sans-serif" font-size="11.5" fill="#8b84b5">new blog post</text>
  <line x1="192" y1="129" x2="226" y2="129" stroke="#5b21b6" stroke-width="2.5"/><path d="M226,129 L218,124 L218,134 Z" fill="#5b21b6"/>
  
  <rect x="232" y="70" width="150" height="118" rx="14" fill="#1b1633" stroke="#2a2150" stroke-width="1.5"/>
  <g transform="translate(307,110)"><path d="M0,-11 C1.1,-4.2 4.2,-1.1 11,0 C4.2,1.1 1.1,4.2 0,11 C-1.1,4.2 -4.2,1.1 -11,0 C-4.2,-1.1 -1.1,-4.2 0,-11 Z" fill="#a78bfa"/></g>
  <text x="307" y="152" text-anchor="middle" font-family="'Segoe UI',Helvetica,Arial,sans-serif" font-size="14" font-weight="700" fill="#ffffff">AI caption</text>
  <text x="307" y="171" text-anchor="middle" font-family="'Segoe UI',Helvetica,Arial,sans-serif" font-size="11.5" fill="#8b84b5">writes the copy</text>
  <line x1="386" y1="129" x2="420" y2="129" stroke="#5b21b6" stroke-width="2.5"/><path d="M420,129 L412,124 L412,134 Z" fill="#5b21b6"/>
  
  <rect x="426" y="70" width="150" height="118" rx="14" fill="#241d45" stroke="#7c3aed" stroke-width="1.5"/>
  <g transform="translate(501,110)"><g transform="translate(-11,-11) scale(0.7)"><rect width="32" height="32" rx="8" fill="#7c3aed"/><path d="M6.6 20.4 L8.2 10.6 L12.4 14.4 L16 8 L19.6 14.4 L23.8 10.6 L25.4 20.4 Z" fill="#ffffff"/><rect x="7" y="21.8" width="18" height="2.6" rx="1.3" fill="#ffffff"/></g></g>
  <text x="501" y="152" text-anchor="middle" font-family="'Segoe UI',Helvetica,Arial,sans-serif" font-size="14" font-weight="700" fill="#ffffff">PostQueen</text>
  <text x="501" y="171" text-anchor="middle" font-family="'Segoe UI',Helvetica,Arial,sans-serif" font-size="11.5" fill="#8b84b5">Create Post</text>
  <!-- result badge -->
  <rect x="180" y="216" width="260" height="34" rx="17" fill="#16351f"/>
  <circle cx="202" cy="233" r="7.5" fill="#16a34a"/>
  <path d="M198.5,233 L201.2,235.8 L205.8,230.4" stroke="#ffffff" stroke-width="1.8" fill="none" stroke-linecap="round" stroke-linejoin="round"/>
  <text x="218" y="238" font-family="'Segoe UI',Helvetica,Arial,sans-serif" font-size="13.5" font-weight="600" fill="#4ade80">Posts scheduled to every channel</text>
</svg>
