<svg xmlns="http://www.w3.org/2000/svg" width="620" height="300" viewBox="0 0 620 300" role="img" aria-label="While you sleep the agent checks yesterday's numbers and drafts today's post">
  <defs>
    <linearGradient id="bg" x1="0" y1="0" x2="0" y2="1"><stop offset="0" stop-color="#0a0918"/><stop offset="1" stop-color="#171331"/></linearGradient>
  </defs>
  <rect x="1" y="1" width="618" height="298" rx="22" fill="url(#bg)" stroke="#2a2150" stroke-width="1.5"/>
  <circle cx="38" cy="40" r="2" fill="#c4b5fd" opacity="0.9"/><circle cx="74" cy="26" r="1.3" fill="#c4b5fd" opacity="0.5"/><circle cx="120" cy="52" r="1.3" fill="#c4b5fd" opacity="0.9"/><circle cx="520" cy="30" r="2" fill="#c4b5fd" opacity="0.5"/><circle cx="566" cy="58" r="1.3" fill="#c4b5fd" opacity="0.9"/><circle cx="588" cy="96" r="1.3" fill="#c4b5fd" opacity="0.5"/><circle cx="492" cy="74" r="2" fill="#c4b5fd" opacity="0.9"/><circle cx="60" cy="90" r="1.3" fill="#c4b5fd" opacity="0.5"/><circle cx="600" cy="180" r="1.3" fill="#c4b5fd" opacity="0.9"/><circle cx="36" cy="150" r="2" fill="#c4b5fd" opacity="0.5"/>
  <path d="M84,54 a26,26 0 1 0 26,34 a20,20 0 0 1 -26,-34 Z" fill="#fbbf24" opacity="0.9"/>
  <!-- log card -->
  <rect x="128" y="60" width="462" height="176" rx="14" fill="#141127" stroke="#2a2150" stroke-width="1.5"/>
  <circle cx="152" cy="88" r="9" fill="#241d45"/>
  <svg viewBox="0 0 120 120" width="14" height="14" x="145" y="81">
  <defs>
    <linearGradient id="lobster-gradient" x1="0%" y1="0%" x2="100%" y2="100%">
      <stop offset="0%" stop-color="#ff4d4d"/>
      <stop offset="100%" stop-color="#991b1b"/>
    </linearGradient>
  </defs>
  
  <path d="M60 10 C30 10 15 35 15 55 C15 75 30 95 45 100 L45 110 L55 110 L55 100 C55 100 60 102 65 100 L65 110 L75 110 L75 100 C90 95 105 75 105 55 C105 35 90 10 60 10Z" fill="url(#lobster-gradient)"/>
  
  <path d="M20 45 C5 40 0 50 5 60 C10 70 20 65 25 55 C28 48 25 45 20 45Z" fill="url(#lobster-gradient)"/>
  
  <path d="M100 45 C115 40 120 50 115 60 C110 70 100 65 95 55 C92 48 95 45 100 45Z" fill="url(#lobster-gradient)"/>
  
  <path d="M45 15 Q35 5 30 8" stroke="#ff4d4d" stroke-width="3" stroke-linecap="round"/>
  <path d="M75 15 Q85 5 90 8" stroke="#ff4d4d" stroke-width="3" stroke-linecap="round"/>
  
  <circle cx="45" cy="35" r="6" fill="#050810"/>
  <circle cx="75" cy="35" r="6" fill="#050810"/>
  <circle cx="46" cy="34" r="2.5" fill="#00e5cc"/>
  <circle cx="76" cy="34" r="2.5" fill="#00e5cc"/>

</svg>
  <text x="168" y="93" font-family="'Segoe UI',Helvetica,Arial,sans-serif" font-size="13" font-weight="700" fill="#ffffff">agent · night shift</text>
  
  <text x="146" y="124" font-family="'SF Mono',SFMono-Regular,Menlo,Consolas,'Liberation Mono',monospace" font-size="13" fill="#8b84b5">04:00</text>
  <text x="212" y="124" font-family="'SF Mono',SFMono-Regular,Menlo,Consolas,'Liberation Mono',monospace" font-size="13" fill="#c9c2ef">woke up on schedule</text>
  
  <text x="146" y="148" font-family="'SF Mono',SFMono-Regular,Menlo,Consolas,'Liberation Mono',monospace" font-size="13" fill="#8b84b5">04:01</text>
  <text x="212" y="148" font-family="'SF Mono',SFMono-Regular,Menlo,Consolas,'Liberation Mono',monospace" font-size="13" fill="#c9c2ef">checked yesterday's numbers</text>
  
  <text x="146" y="172" font-family="'SF Mono',SFMono-Regular,Menlo,Consolas,'Liberation Mono',monospace" font-size="13" fill="#8b84b5">04:02</text>
  <text x="212" y="172" font-family="'SF Mono',SFMono-Regular,Menlo,Consolas,'Liberation Mono',monospace" font-size="13" fill="#c9c2ef">drafted today's post</text>
  <circle cx="152" cy="204" r="7.5" fill="#16a34a"/>
  <path d="M148.5,204 L151.2,206.8 L155.8,201.4" stroke="#ffffff" stroke-width="1.8" fill="none" stroke-linecap="round" stroke-linejoin="round"/>
  <text x="168" y="209" font-family="'SF Mono',SFMono-Regular,Menlo,Consolas,'Liberation Mono',monospace" font-size="13" fill="#4ade80">waiting on your calendar, 9:00 AM</text>
  <text x="310" y="276" text-anchor="middle" font-family="'Segoe UI',Helvetica,Arial,sans-serif" font-size="13.5" fill="#9c94c9"><tspan font-weight="700" fill="#c4b5fd">4:00 AM: you are asleep, your agent is not.</tspan>  A tiny cron job plus the PostQueen CLI.</text>
</svg>
