<svg xmlns="http://www.w3.org/2000/svg" width="410" height="112" viewBox="0 0 410 112" role="img" aria-label="AI tinkerers: Wire her into Claude, ChatGPT or OpenClaw.">
  <defs><linearGradient id="g" x1="0" y1="0" x2="1" y2="1"><stop offset="0" stop-color="#7c3aed"/><stop offset="1" stop-color="#a855f7"/></linearGradient></defs>
  <rect x="1" y="1" width="408" height="110" rx="18" fill="url(#g)"/>
  <circle cx="52" cy="56" r="30" fill="#ffffff" opacity="0.16"/>
  <g transform="translate(52,56)"><rect x="-11" y="-11" width="22" height="22" rx="4" fill="none" stroke="#fff" stroke-width="2.6"/><rect x="-4.5" y="-4.5" width="9" height="9" fill="#fff"/><path d="M-6,-16 L-6,-11 M0,-16 L0,-11 M6,-16 L6,-11 M-6,11 L-6,16 M0,11 L0,16 M6,11 L6,16 M-16,-6 L-11,-6 M-16,0 L-11,0 M-16,6 L-11,6 M11,-6 L16,-6 M11,0 L16,0 M11,6 L16,6" stroke="#fff" stroke-width="2.2" stroke-linecap="round"/></g>
  <text x="98" y="50" font-family="'Segoe UI',Helvetica,Arial,sans-serif" font-size="21" font-weight="700" fill="#ffffff">AI tinkerers</text>
  <text x="98" y="78" font-family="'Segoe UI',Helvetica,Arial,sans-serif" font-size="14.5" font-weight="400" fill="#fff3ec">Wire her into Claude, ChatGPT or OpenClaw.</text>
</svg>
