<svg xmlns="http://www.w3.org/2000/svg" width="410" height="124" viewBox="0 0 410 124" role="img" aria-label="OpenClaw: runs on your machine; message her from WhatsApp, Telegram, Slack or Discord.">
  <defs>
    <linearGradient id="bg" x1="0" y1="0" x2="1" y2="1"><stop offset="0" stop-color="#0f0e1d"/><stop offset="1" stop-color="#171331"/></linearGradient>
    <linearGradient id="lobg" x1="0%" y1="0%" x2="100%" y2="100%"><stop offset="0%" stop-color="#ff4d4d"/><stop offset="100%" stop-color="#991b1b"/></linearGradient>
  </defs>
  <rect x="1" y="1" width="408" height="122" rx="18" fill="url(#bg)" stroke="#2a2150" stroke-width="1.5"/>
  <rect x="24" y="40" width="44" height="44" rx="10" fill="#1b1430" stroke="#ff4d4d" stroke-width="1.5"/>
  <svg viewBox="0 0 120 120" width="30" height="30" x="31" y="47">
    <path d="M60 10 C30 10 15 35 15 55 C15 75 30 95 45 100 L45 110 L55 110 L55 100 C55 100 60 102 65 100 L65 110 L75 110 L75 100 C90 95 105 75 105 55 C105 35 90 10 60 10Z" fill="url(#lobg)"/>
    <path d="M20 45 C5 40 0 50 5 60 C10 70 20 65 25 55 C28 48 25 45 20 45Z" fill="url(#lobg)"/>
    <path d="M100 45 C115 40 120 50 115 60 C110 70 100 65 95 55 C92 48 95 45 100 45Z" fill="url(#lobg)"/>
    <path d="M45 15 Q35 5 30 8" stroke="#ff4d4d" stroke-width="3" stroke-linecap="round" fill="none"/>
    <path d="M75 15 Q85 5 90 8" stroke="#ff4d4d" stroke-width="3" stroke-linecap="round" fill="none"/>
    <circle cx="45" cy="35" r="6" fill="#050810"/>
    <circle cx="75" cy="35" r="6" fill="#050810"/>
    <circle cx="46" cy="34" r="2.5" fill="#00e5cc"/>
    <circle cx="76" cy="34" r="2.5" fill="#00e5cc"/>
  </svg>
  <text x="90" y="42" font-family="'Segoe UI',Helvetica,Arial,sans-serif" font-size="19" font-weight="700" fill="#ffffff">OpenClaw</text>
  <text x="90" y="66" font-family="'Segoe UI',Helvetica,Arial,sans-serif" font-size="13.5" fill="#c4b5fd">Runs on your machine; message her from</text>
  <text x="90" y="85" font-family="'Segoe UI',Helvetica,Arial,sans-serif" font-size="13.5" fill="#c4b5fd">WhatsApp, Telegram, Slack or Discord.</text>
  <text x="90" y="107" font-family="'Segoe UI',Helvetica,Arial,sans-serif" font-size="13" font-weight="600" fill="#ff6b6b">Set-up guide &#187;</text>
</svg>
