<svg xmlns="http://www.w3.org/2000/svg" width="620" height="320" viewBox="0 0 620 320" role="img" aria-label="Teamwork: owner, admin and member roles in one workspace">
  <defs><linearGradient id="bg" x1="0" y1="0" x2="1" y2="1"><stop offset="0" stop-color="#0f0e1d"/><stop offset="1" stop-color="#171331"/></linearGradient>
  <linearGradient id="av1" x1="0" y1="0" x2="1" y2="1"><stop offset="0" stop-color="#7c3aed"/><stop offset="1" stop-color="#a855f7"/></linearGradient>
  <linearGradient id="av2" x1="0" y1="0" x2="1" y2="1"><stop offset="0" stop-color="#db2777"/><stop offset="1" stop-color="#ec4899"/></linearGradient>
  <linearGradient id="av3" x1="0" y1="0" x2="1" y2="1"><stop offset="0" stop-color="#0891b2"/><stop offset="1" stop-color="#06b6d4"/></linearGradient></defs>
  <rect x="1" y="1" width="618" height="318" rx="22" fill="url(#bg)" stroke="#2a2150" stroke-width="1.5"/>
  
  <rect x="46" y="56" width="164" height="180" rx="16" fill="#1b1633" stroke="#2a2150" stroke-width="1"/>
  <circle cx="128" cy="112" r="34" fill="url(#av1)"/>
  <clipPath id="av46"><circle cx="128" cy="112" r="34"/></clipPath>
  <g clip-path="url(#av46)">
  <circle cx="128" cy="104" r="16" fill="#e9d5ff"/>
  <path d="M102,150 C 102,122 154,122 154,150 Z" fill="#4c1d95"/></g>
  <text x="128" y="172" text-anchor="middle" font-family="'Segoe UI',Helvetica,Arial,sans-serif" font-size="15" font-weight="700" fill="#ffffff">Maya</text>
  <rect x="80" y="186" width="96" height="28" rx="14" fill="#7c3aed"/>
  <text x="128" y="205" text-anchor="middle" font-family="'Segoe UI',Helvetica,Arial,sans-serif" font-size="13" font-weight="700" fill="#ffffff">Owner</text>
  
  <rect x="228" y="56" width="164" height="180" rx="16" fill="#1b1633" stroke="#2a2150" stroke-width="1"/>
  <circle cx="310" cy="112" r="34" fill="url(#av2)"/>
  <clipPath id="av228"><circle cx="310" cy="112" r="34"/></clipPath>
  <g clip-path="url(#av228)">
  <circle cx="310" cy="104" r="16" fill="#fbcfe8"/>
  <path d="M284,150 C 284,122 336,122 336,150 Z" fill="#831843"/></g>
  <text x="310" y="172" text-anchor="middle" font-family="'Segoe UI',Helvetica,Arial,sans-serif" font-size="15" font-weight="700" fill="#ffffff">Deniz</text>
  <rect x="262" y="186" width="96" height="28" rx="14" fill="#5b21b6"/>
  <text x="310" y="205" text-anchor="middle" font-family="'Segoe UI',Helvetica,Arial,sans-serif" font-size="13" font-weight="700" fill="#ffffff">Admin</text>
  
  <rect x="410" y="56" width="164" height="180" rx="16" fill="#1b1633" stroke="#2a2150" stroke-width="1"/>
  <circle cx="492" cy="112" r="34" fill="url(#av3)"/>
  <clipPath id="av410"><circle cx="492" cy="112" r="34"/></clipPath>
  <g clip-path="url(#av410)">
  <circle cx="492" cy="104" r="16" fill="#cffafe"/>
  <path d="M466,150 C 466,122 518,122 518,150 Z" fill="#155e75"/></g>
  <text x="492" y="172" text-anchor="middle" font-family="'Segoe UI',Helvetica,Arial,sans-serif" font-size="15" font-weight="700" fill="#ffffff">Alex</text>
  <rect x="444" y="186" width="96" height="28" rx="14" fill="#3b3268"/>
  <text x="492" y="205" text-anchor="middle" font-family="'Segoe UI',Helvetica,Arial,sans-serif" font-size="13" font-weight="700" fill="#ffffff">Member</text>
  <text x="310" y="284" text-anchor="middle" font-family="'Segoe UI',Helvetica,Arial,sans-serif" font-size="13.5" fill="#9c94c9">Invite the team: roles, shared calendars and multi-brand workspaces.</text>
</svg>
