<svg xmlns="http://www.w3.org/2000/svg" width="410" height="260" viewBox="0 0 410 260" role="img" aria-label="Teamwork: roles and comments on posts">
  <defs><linearGradient id="bg" x1="0" y1="0" x2="1" y2="1"><stop offset="0" stop-color="#0f0e1d"/><stop offset="1" stop-color="#171331"/></linearGradient></defs>
  <rect x="1" y="1" width="408" height="258" rx="18" fill="url(#bg)" stroke="#2a2150" stroke-width="1.5"/>
  <text x="24" y="36" font-family="'Segoe UI',Helvetica,Arial,sans-serif" font-size="15" font-weight="700" fill="#ffffff">Teamwork</text>
  
  <rect x="24" y="52" width="112" height="128" rx="12" fill="#1b1633" stroke="#2a2150" stroke-width="1"/>
  <circle cx="80" cy="88" r="20" fill="#3b3268"/>
  <text x="80" y="94" text-anchor="middle" font-family="'Segoe UI',Helvetica,Arial,sans-serif" font-size="14" font-weight="700" fill="#e8e3ff">MJ</text>
  <text x="80" y="126" text-anchor="middle" font-family="'Segoe UI',Helvetica,Arial,sans-serif" font-size="12.5" font-weight="600" fill="#ffffff">Maya</text>
  <rect x="40" y="140" width="80" height="24" rx="12" fill="#7c3aed"/>
  <text x="80" y="156" text-anchor="middle" font-family="'Segoe UI',Helvetica,Arial,sans-serif" font-size="11.5" font-weight="700" fill="#ffffff">Owner</text>
  
  <rect x="148" y="52" width="112" height="128" rx="12" fill="#1b1633" stroke="#2a2150" stroke-width="1"/>
  <circle cx="204" cy="88" r="20" fill="#3b3268"/>
  <text x="204" y="94" text-anchor="middle" font-family="'Segoe UI',Helvetica,Arial,sans-serif" font-size="14" font-weight="700" fill="#e8e3ff">DK</text>
  <text x="204" y="126" text-anchor="middle" font-family="'Segoe UI',Helvetica,Arial,sans-serif" font-size="12.5" font-weight="600" fill="#ffffff">Deniz</text>
  <rect x="164" y="140" width="80" height="24" rx="12" fill="#5b21b6"/>
  <text x="204" y="156" text-anchor="middle" font-family="'Segoe UI',Helvetica,Arial,sans-serif" font-size="11.5" font-weight="700" fill="#ffffff">Admin</text>
  
  <rect x="272" y="52" width="112" height="128" rx="12" fill="#1b1633" stroke="#2a2150" stroke-width="1"/>
  <circle cx="328" cy="88" r="20" fill="#3b3268"/>
  <text x="328" y="94" text-anchor="middle" font-family="'Segoe UI',Helvetica,Arial,sans-serif" font-size="14" font-weight="700" fill="#e8e3ff">AL</text>
  <text x="328" y="126" text-anchor="middle" font-family="'Segoe UI',Helvetica,Arial,sans-serif" font-size="12.5" font-weight="600" fill="#ffffff">Alex</text>
  <rect x="288" y="140" width="80" height="24" rx="12" fill="#3b3268"/>
  <text x="328" y="156" text-anchor="middle" font-family="'Segoe UI',Helvetica,Arial,sans-serif" font-size="11.5" font-weight="700" fill="#ffffff">Member</text>
  <!-- comment bubble -->
  <rect x="52" y="196" width="252" height="44" rx="14" fill="#241d45"/>
  <path d="M84,196 L94,186 L102,196 Z" fill="#241d45"/>
  <text x="70" y="215" font-family="'Segoe UI',Helvetica,Arial,sans-serif" font-size="12" font-weight="600" fill="#a78bfa">Deniz</text>
  <text x="70" y="232" font-family="'Segoe UI',Helvetica,Arial,sans-serif" font-size="12" fill="#c9c2ef">Can we move this one to 6 pm?</text>
</svg>
